<svg width="58" height="58" viewBox="0 0 58 58" fill="none" xmlns="http://www.w3.org/2000/svg">
<path fill-rule="evenodd" clip-rule="evenodd" d="M35.4226 17.2929C35.0321 16.9024 34.3989 16.9024 34.0084 17.2929L22.0088 29.2925C21.9971 29.3042 21.9971 29.3232 22.0088 29.3349L22.0225 29.3486C22.0266 29.3527 22.0266 29.3594 22.0225 29.3635C22.0184 29.3676 22.0184 29.3742 22.0225 29.3783L33.9955 41.3513C34.386 41.7418 35.0192 41.7418 35.4097 41.3513C35.8002 40.9607 35.8002 40.3276 35.4097 39.9371L26.2154 30.7428C25.4344 29.9617 25.4344 28.6954 26.2154 27.9143L35.4226 18.7071C35.8132 18.3166 35.8132 17.6834 35.4226 17.2929Z" fill="white"/>
</svg>
