<svg width="20" height="20" viewBox="0 0 20 20" fill="none" xmlns="http://www.w3.org/2000/svg">
<path fill-rule="evenodd" clip-rule="evenodd" d="M8.35008 3.58758C8.78767 3.16562 9.38116 2.92857 10 2.92857C10.6188 2.92857 11.2123 3.16562 11.6499 3.58758C11.9264 3.8542 12.1263 4.18082 12.2361 4.53571H7.76393C7.87367 4.18082 8.0736 3.8542 8.35008 3.58758ZM5.71824 4.53571C5.85873 3.66556 6.28204 2.85435 6.93587 2.22388C7.74853 1.44024 8.85073 1 10 1C11.1493 1 12.2515 1.44024 13.0641 2.22388C13.718 2.85435 14.1413 3.66556 14.2817 4.53571H18C18.5523 4.53571 19 4.96744 19 5.5C19 6.03257 18.5523 6.46429 18 6.46429H16.6667V17.0714C16.6667 17.5829 16.456 18.0735 16.0809 18.4352C15.7059 18.7969 15.1971 19 14.6667 19H5.33333C4.80289 19 4.29419 18.7969 3.91912 18.4352C3.54405 18.0735 3.33333 17.5829 3.33333 17.0714V6.46429H2C1.44771 6.46429 1 6.03257 1 5.5C1 4.96744 1.44771 4.53571 2 4.53571H5.71824ZM7.33333 8.55545C7.79357 8.55545 8.16667 8.91523 8.16667 9.35902V14.5039C8.16667 14.9476 7.79357 15.3074 7.33333 15.3074C6.87309 15.3074 6.5 14.9476 6.5 14.5039V9.35902C6.5 8.91523 6.87309 8.55545 7.33333 8.55545ZM13.5 9.35902C13.5 8.91523 13.1269 8.55545 12.6667 8.55545C12.2064 8.55545 11.8333 8.91523 11.8333 9.35902V14.5039C11.8333 14.9476 12.2064 15.3074 12.6667 15.3074C13.1269 15.3074 13.5 14.9476 13.5 14.5039V9.35902Z" fill="#008963"/>
</svg>
