<svg width="20" height="21" viewBox="0 0 20 21" fill="none" xmlns="http://www.w3.org/2000/svg">
<g clip-path="url(#clip0_2410_3841)">
<path d="M10 0.5C4.47 0.5 0 5 0 10.5C0 16 4.5 20.5 10 20.5C15.5 20.5 20 16 20 10.5C20 5 15.5 0.5 10 0.5ZM10 18.5C5.58 18.5 2 14.92 2 10.5C2 6.08 5.58 2.5 10 2.5C14.42 2.5 18 6.08 18 10.5C18 14.92 14.42 18.5 10 18.5ZM6 12.5L5 6.5L8 8.5L10 5.5L12 8.5L15 6.5L14 12.5H6ZM6.56 14.5C6.22 14.5 6 14.28 6 13.94V13.5H14V13.94C14 14.28 13.78 14.5 13.44 14.5H6.56Z" fill="white"/>
</g>
<defs>
<clipPath id="clip0_2410_3841">
<rect width="20" height="20" fill="white" transform="translate(0 0.5)"/>
</clipPath>
</defs>
</svg>
