<svg width="24" height="24" viewBox="0 0 24 24" fill="none" xmlns="http://www.w3.org/2000/svg">
<rect x="2" y="2" width="20" height="20" rx="5" fill="#19D5AF"/>
<path d="M17.5 13.0937C17.5 16.0721 15.045 18.5 12 18.5C8.95498 18.5 6.5 16.0721 6.5 13.0937C6.5 12.1226 6.83793 11.0956 7.37876 10.0807C7.91788 9.06905 8.64279 8.09888 9.37796 7.24998C10.1119 6.40253 10.8473 5.68591 11.3998 5.18087C11.6403 4.96106 11.8455 4.78191 12 4.65012C12.1545 4.78191 12.3597 4.96106 12.6002 5.18087C13.1527 5.68591 13.8881 6.40253 14.622 7.24998C15.3572 8.09888 16.0821 9.06905 16.6212 10.0807C17.1621 11.0956 17.5 12.1226 17.5 13.0937Z" stroke="#007B63"/>
<path d="M10.3399 13.29C10.9939 13.29 11.4739 12.756 11.4739 11.862C11.4739 10.968 10.9939 10.452 10.3399 10.452C9.68595 10.452 9.21195 10.968 9.21195 11.862C9.21195 12.756 9.68595 13.29 10.3399 13.29ZM10.3399 12.702C10.1299 12.702 9.94995 12.486 9.94995 11.862C9.94995 11.238 10.1299 11.04 10.3399 11.04C10.5499 11.04 10.7299 11.238 10.7299 11.862C10.7299 12.486 10.5499 12.702 10.3399 12.702ZM10.4959 15.084H11.1019L13.5139 10.452H12.9019L10.4959 15.084ZM13.6639 15.084C14.3119 15.084 14.7919 14.55 14.7919 13.656C14.7919 12.762 14.3119 12.24 13.6639 12.24C13.0159 12.24 12.5359 12.762 12.5359 13.656C12.5359 14.55 13.0159 15.084 13.6639 15.084ZM13.6639 14.49C13.4539 14.49 13.2679 14.28 13.2679 13.656C13.2679 13.026 13.4539 12.834 13.6639 12.834C13.8739 12.834 14.0479 13.026 14.0479 13.656C14.0479 14.28 13.8739 14.49 13.6639 14.49Z" fill="#007B63"/>
</svg>
