<svg width="24" height="24" viewBox="0 0 24 24" fill="none" xmlns="http://www.w3.org/2000/svg">
<rect x="2" y="2" width="20" height="20" rx="5" fill="#19D5AF"/>
<mask id="path-2-inside-1_579_11725" fill="white">
<path fill-rule="evenodd" clip-rule="evenodd" d="M10 5C8.89543 5 8 5.89543 8 7V11.5351C6.8044 12.2267 6 13.5194 6 15C6 17.2091 7.79086 19 10 19C12.2091 19 14 17.2091 14 15C14 13.5194 13.1956 12.2267 12 11.5351V7C12 5.89543 11.1046 5 10 5Z"/>
</mask>
<path d="M8 11.5351L8.50073 12.4007L9 12.1119V11.5351H8ZM12 11.5351H11V12.1119L11.4993 12.4007L12 11.5351ZM9 7C9 6.44772 9.44772 6 10 6V4C8.34315 4 7 5.34315 7 7H9ZM9 11.5351V7H7V11.5351H9ZM7 15C7 13.8908 7.60141 12.921 8.50073 12.4007L7.49927 10.6695C6.00738 11.5325 5 13.148 5 15H7ZM10 18C8.34315 18 7 16.6569 7 15H5C5 17.7614 7.23858 20 10 20V18ZM13 15C13 16.6569 11.6569 18 10 18V20C12.7614 20 15 17.7614 15 15H13ZM11.4993 12.4007C12.3986 12.921 13 13.8908 13 15H15C15 13.148 13.9926 11.5325 12.5007 10.6695L11.4993 12.4007ZM11 7V11.5351H13V7H11ZM10 6C10.5523 6 11 6.44772 11 7H13C13 5.34315 11.6569 4 10 4V6Z" fill="#007B63" mask="url(#path-2-inside-1_579_11725)"/>
<path d="M8 8H10M8 10H10" stroke="#007B63"/>
<circle cx="10" cy="15" r="1" fill="#007B63"/>
<circle cx="17.5" cy="7.5" r="1" stroke="#007B63"/>
</svg>
