<svg width="29" height="28" viewBox="0 0 29 28" fill="none" xmlns="http://www.w3.org/2000/svg">
<path d="M17.5 23.0833C17.5 24.6942 16.1569 26 14.5 26C12.8431 26 11.5 24.6942 11.5 23.0833C11.5 21.4725 12.8431 21 14.5 21C16.1569 21 17.5 21.4725 17.5 23.0833Z" fill="#1CB99A"/>
<path d="M12.119 6.11263L12.4465 7.05748L13.119 6.82438V6.11263H12.119ZM7.35722 17.4762H6.35722V18.4762H7.35722V17.4762ZM21.6429 17.4762V18.4762H22.6429V17.4762H21.6429ZM16.8809 6.11253H15.8809V6.82431L16.5534 7.0574L16.8809 6.11253ZM4.5726 21.1819L3.77315 20.5811L3.74593 20.6174L3.72209 20.6559L4.5726 21.1819ZM24.3636 21.1819L23.5575 21.7737L23.5915 21.8199L23.6304 21.8619L24.3636 21.1819ZM21.6429 17.4762L22.4489 16.8844L22.1492 16.4762H21.6429V17.4762ZM7.35714 17.4762V16.4762H6.85771L6.55769 16.8755L7.35714 17.4762ZM13.119 5.17143C13.119 4.78856 13.2414 4.51824 13.4171 4.3447C13.5899 4.17395 13.9127 4 14.4999 4V2C13.4999 2 12.6322 2.30859 12.0114 2.92197C11.3934 3.53255 11.119 4.34795 11.119 5.17143H13.119ZM13.119 6.11263V5.17143H11.119V6.11263H13.119ZM8.35722 12.7415C8.35722 10.1225 10.0523 7.88735 12.4465 7.05748L11.7915 5.16778C8.63164 6.26304 6.35722 9.22935 6.35722 12.7415H8.35722ZM8.35722 17.4762V12.7415H6.35722V17.4762H8.35722ZM21.6429 16.4762H7.35722V18.4762H21.6429V16.4762ZM20.6429 12.7415V17.4762H22.6429V12.7415H20.6429ZM16.5534 7.0574C18.9477 7.8872 20.6429 10.1224 20.6429 12.7415H22.6429C22.6429 9.22923 20.3684 6.26285 17.2084 5.16767L16.5534 7.0574ZM15.8809 5.11111V6.11253H17.8809V5.11111H15.8809ZM14.4999 4C15.0873 4 15.4146 4.17424 15.5898 4.34394C15.7669 4.51563 15.8809 4.77145 15.8809 5.11111H17.8809C17.8809 4.30474 17.598 3.50501 16.9815 2.90764C16.363 2.3083 15.4999 2 14.4999 2V4ZM5.09342 21C5.22488 21 5.36077 21.0766 5.43614 21.202C5.50446 21.3156 5.54199 21.5156 5.42311 21.7078L3.72209 20.6559C3.05492 21.7348 3.93213 23 5.09342 23V21ZM23.9469 21H5.09342V23H23.9469V21ZM23.6304 21.8619C23.5767 21.804 23.5214 21.7084 23.5048 21.5827C23.4887 21.4606 23.514 21.3462 23.5614 21.2552C23.6579 21.07 23.8282 21 23.9469 21V23C24.5344 23 25.0693 22.6894 25.3351 22.1794C25.6131 21.6457 25.5433 20.9832 25.0967 20.5018L23.6304 21.8619ZM20.8368 18.068L23.5575 21.7737L25.1697 20.59L22.4489 16.8844L20.8368 18.068ZM7.35714 18.4762H21.6429V16.4762H7.35714V18.4762ZM5.37205 21.7826L8.1566 18.0769L6.55769 16.8755L3.77315 20.5811L5.37205 21.7826Z" fill="#1CB99A"/>
</svg>
