<svg width="36" height="36" viewBox="0 0 36 36" fill="none" xmlns="http://www.w3.org/2000/svg">
<path d="M8.87247 23.8781L6.14039 19.919C5.65469 19.2152 6.54514 19.0392 7.05108 19.0392L9.78317 20.7988L13.8813 17.7195C12.8188 16.5465 10.5117 14.0244 9.78317 13.3205C8.87247 12.4407 8.87247 11.5609 9.32782 11.121C9.6921 10.7691 10.9974 11.2677 11.6046 11.5609L19.3455 14.6402C21.0151 13.9071 24.5364 12.3528 25.265 12.0008C26.1757 11.5609 28.9078 12.0008 29.8184 13.7604C30.547 15.1681 28.9077 16.3998 27.9971 16.8397C22.9882 19.1859 12.6063 24.0541 11.1492 24.7579C9.6921 25.4618 9.02425 24.4647 8.87247 23.8781Z" fill="white"/>
</svg>
