<svg width="36" height="36" viewBox="0 0 36 36" fill="none" xmlns="http://www.w3.org/2000/svg">
<path fill-rule="evenodd" clip-rule="evenodd" d="M7.00156 19.477C6.22177 19.477 5.74202 20.3298 6.14696 20.9962L8.79488 25.354C8.97626 25.6525 9.30022 25.8347 9.64948 25.8347H23.6294C23.8612 25.8347 24.0858 25.7542 24.2648 25.6069L29.5606 21.2491C30.2852 20.6529 29.8636 19.477 28.9252 19.477H7.00156ZM10.5218 20.5366H9.46218V21.5962H10.5218V20.5366ZM12.641 20.5366H11.5814V21.5962H12.641V20.5366ZM13.7007 20.5366H14.7603V21.5962H13.7007V20.5366ZM16.8795 20.5366H15.8199V21.5962H16.8795V20.5366ZM17.9391 20.5366H18.9988V21.5962H17.9391V20.5366ZM21.118 20.5366H20.0584V21.5962H21.118V20.5366ZM22.1776 20.5366H23.2372V21.5962H22.1776V20.5366ZM25.3565 20.5366H24.2969V21.5962H25.3565V20.5366Z" fill="white"/>
<path fill-rule="evenodd" clip-rule="evenodd" d="M10.5218 14.1789L8.40259 18.4173H27.4758L24.8267 16.2981H18.9987V15.2385H23.5022L22.1777 14.1789H16.8796L13.7007 11H11.5814L12.6411 14.1789H10.5218Z" fill="white"/>
</svg>
