<svg width="24" height="24" viewBox="0 0 24 24" fill="none" xmlns="http://www.w3.org/2000/svg">
<path fill-rule="evenodd" clip-rule="evenodd" d="M7.88571 2.74912C8.04759 2.52936 8.30163 2.40002 8.57143 2.40002H15.4286C15.6984 2.40002 15.9524 2.52936 16.1143 2.74912L18.4286 5.89093H21.4286C22.1105 5.89093 22.7647 6.16679 23.2469 6.65778C23.7291 7.14878 24 7.81472 24 8.50912V18.9818C24 19.6762 23.7291 20.3423 23.2469 20.8332C22.7647 21.3242 22.1105 21.6 21.4286 21.6H2.57143C1.88943 21.6 1.23539 21.3242 0.753154 20.8332C0.270917 20.3423 0 19.6762 0 18.9818V8.50912C0 7.81474 0.270917 7.14878 0.753154 6.65778C1.23539 6.16679 1.88943 5.89093 2.57143 5.89093H5.57143L7.88571 2.74912ZM16.2194 13.2416C16.2194 15.6143 14.3303 17.5377 12 17.5377C9.66967 17.5377 7.78058 15.6143 7.78058 13.2416C7.78058 10.8689 9.66967 8.94548 12 8.94548C14.3303 8.94548 16.2194 10.8689 16.2194 13.2416Z" fill="white"/>
</svg>
