<svg width="20" height="20" viewBox="0 0 20 20" fill="none" xmlns="http://www.w3.org/2000/svg">
<path fill-rule="evenodd" clip-rule="evenodd" d="M6 2C4.34315 2 3 3.34315 3 5V15C3 16.6569 4.34315 18 6 18H14C15.6569 18 17 16.6569 17 15V7.18374C17 6.93182 16.9049 6.68918 16.7338 6.50433L12.8599 2.32059C12.6707 2.11619 12.4047 2 12.1262 2H6ZM1 5C1 2.23858 3.23858 0 6 0H12.1262C12.9619 0 13.7597 0.348579 14.3274 0.961776L18.2013 5.14551C18.7148 5.70006 19 6.42798 19 7.18374V15C19 17.7614 16.7614 20 14 20H6C3.23858 20 1 17.7614 1 15V5Z" fill="#008963"/>
<path fill-rule="evenodd" clip-rule="evenodd" d="M12 0.5C12.5523 0.5 13 0.947715 13 1.5V5C13 5.55228 13.4477 6 14 6H16.5C17.0523 6 17.5 6.44772 17.5 7C17.5 7.55228 17.0523 8 16.5 8H14C12.3431 8 11 6.65685 11 5V1.5C11 0.947715 11.4477 0.5 12 0.5Z" fill="#008963"/>
<path fill-rule="evenodd" clip-rule="evenodd" d="M5 10C5 9.44772 5.44772 9 6 9H14C14.5523 9 15 9.44772 15 10C15 10.5523 14.5523 11 14 11H6C5.44772 11 5 10.5523 5 10Z" fill="#008963"/>
<path fill-rule="evenodd" clip-rule="evenodd" d="M5 15C5 14.4477 5.44772 14 6 14H10C10.5523 14 11 14.4477 11 15C11 15.5523 10.5523 16 10 16H6C5.44772 16 5 15.5523 5 15Z" fill="#008963"/>
</svg>
