<svg width="24" height="24" viewBox="0 0 24 24" fill="none" xmlns="http://www.w3.org/2000/svg">
<g clip-path="url(#clip0_2741_694)">
<path d="M23.64 7.2C24.12 6.72 24.12 6 23.64 5.52L20.88 2.76C20.4 2.28 19.68 2.28 19.2 2.76L17.04 4.92L21.6 9.48L23.64 7.2ZM2.69289 19.1471C2.50536 19.3346 2.4 19.589 2.4 19.8542V23C2.4 23.5523 2.84772 24 3.4 24H6.54313C6.80992 24 7.06564 23.8934 7.25343 23.7039L20.16 10.68L15.72 6.12L2.69289 19.1471ZM5 0C5.55229 0 6 0.447715 6 1V3.6H8.6C9.15228 3.6 9.6 4.04772 9.6 4.6V5C9.6 5.55229 9.15229 6 8.6 6H6V8.6C6 9.15228 5.55228 9.6 5 9.6H4.6C4.04771 9.6 3.6 9.15229 3.6 8.6V6H1C0.447716 6 0 5.55228 0 5V4.6C0 4.04771 0.447715 3.6 1 3.6H3.6V1C3.6 0.447716 4.04772 0 4.6 0H5Z" fill="white"/>
</g>
<defs>
<clipPath id="clip0_2741_694">
<rect width="24" height="24" fill="white"/>
</clipPath>
</defs>
</svg>
