<svg width="20" height="20" viewBox="0 0 20 20" fill="none" xmlns="http://www.w3.org/2000/svg">
<path d="M18.718 10.7052C18.8987 10.5249 19 10.2805 19 10.0257C19 9.77083 18.8987 9.52641 18.718 9.3461L16.1463 6.78175C16.0153 6.65712 15.8518 6.57178 15.6744 6.5355C15.497 6.49922 15.313 6.51346 15.1434 6.57661C14.9579 6.64002 14.7965 6.75905 14.6814 6.91742C14.5663 7.07579 14.5031 7.26575 14.5004 7.46131V8.74347C14.5004 8.8285 14.4666 8.91003 14.4063 8.97013C14.3461 9.03025 14.2643 9.06403 14.179 9.06403H11.2859C11.2006 9.06403 11.1188 9.03025 11.0586 8.97013C10.9983 8.91003 10.9644 8.8285 10.9644 8.74347V5.85859C10.9644 5.77357 10.9983 5.69205 11.0586 5.63193C11.1188 5.57182 11.2006 5.53804 11.2859 5.53804H12.5717C12.7678 5.5354 12.9583 5.47238 13.1171 5.35762C13.276 5.24287 13.3953 5.08197 13.4589 4.89696C13.5331 4.72113 13.5531 4.52728 13.5165 4.34005C13.4798 4.15284 13.3882 3.98072 13.2532 3.84558L10.6815 1.28123C10.5007 1.10115 10.2556 1 10 1C9.74446 1 9.49935 1.10115 9.31853 1.28123L6.74685 3.84558C6.61185 3.98072 6.52021 4.15284 6.48358 4.34005C6.44695 4.52728 6.46697 4.72113 6.54111 4.89696C6.60472 5.08197 6.72409 5.24287 6.8829 5.35762C7.04173 5.47238 7.23223 5.5354 7.42834 5.53804H8.71419C8.79944 5.53804 8.8812 5.57182 8.94149 5.63193C9.00177 5.69205 9.03565 5.77357 9.03565 5.85859V8.74347C9.03565 8.8285 9.00177 8.91003 8.94149 8.97013C8.8812 9.03025 8.79944 9.06403 8.71419 9.06403H5.82105C5.7358 9.06403 5.65402 9.03025 5.59374 8.97013C5.53345 8.91003 5.49959 8.8285 5.49959 8.74347V7.46131C5.49942 7.27124 5.44277 7.08548 5.33679 6.92749C5.23081 6.76951 5.08026 6.64638 4.90415 6.57367C4.72803 6.50095 4.53426 6.48191 4.3473 6.51895C4.16034 6.55598 3.98858 6.64744 3.85371 6.78175L1.28204 9.3461C1.10144 9.52641 1 9.77083 1 10.0257C1 10.2805 1.10144 10.5249 1.28204 10.7052L3.85371 13.2696C4.03594 13.4476 4.28009 13.5487 4.5352 13.5516C4.646 13.5446 4.75475 13.5186 4.85666 13.4747C5.04221 13.4113 5.20356 13.2922 5.31865 13.1339C5.43373 12.9755 5.49694 12.7856 5.49959 12.59V11.3078C5.49959 11.2228 5.53345 11.1413 5.59374 11.0812C5.65402 11.0211 5.7358 10.9873 5.82105 10.9873H8.71419C8.79944 10.9873 8.8812 11.0211 8.94149 11.0812C9.00177 11.1413 9.03565 11.2228 9.03565 11.3078V14.1927C9.03565 14.2777 9.00177 14.3592 8.94149 14.4194C8.8812 14.4794 8.79944 14.5132 8.71419 14.5132H7.42834C7.2383 14.512 7.05223 14.5675 6.8941 14.6725C6.73596 14.7777 6.61302 14.9276 6.54111 15.103C6.46697 15.2789 6.44695 15.4728 6.48358 15.66C6.52021 15.8472 6.61185 16.0193 6.74685 16.1545L9.31853 18.7188C9.49935 18.8988 9.74446 19 10 19C10.2556 19 10.5007 18.8988 10.6815 18.7188L13.2532 16.1545C13.3782 16.0238 13.4638 15.8607 13.5002 15.6839C13.5365 15.507 13.5223 15.3235 13.4589 15.1543C13.3953 14.9693 13.276 14.8084 13.1171 14.6936C12.9583 14.5789 12.7678 14.5159 12.5717 14.5132H11.2859C11.2006 14.5132 11.1188 14.4794 11.0586 14.4194C10.9983 14.3592 10.9644 14.2777 10.9644 14.1927V11.3078C10.9644 11.2228 10.9983 11.1413 11.0586 11.0812C11.1188 11.0211 11.2006 10.9873 11.2859 10.9873H14.179C14.2643 10.9873 14.3461 11.0211 14.4063 11.0812C14.4666 11.1413 14.5004 11.2228 14.5004 11.3078V12.59C14.4991 12.7795 14.5548 12.965 14.6603 13.1227C14.7656 13.2804 14.916 13.403 15.092 13.4747C15.2098 13.5248 15.3367 13.551 15.4649 13.5516C15.7199 13.5487 15.9641 13.4476 16.1463 13.2696L18.718 10.7052Z" fill="#959595"/>
</svg>
