<svg width="20" height="21" viewBox="0 0 20 21" fill="none" xmlns="http://www.w3.org/2000/svg">
<path fill-rule="evenodd" clip-rule="evenodd" d="M19 17.5714C19 18.6365 18.1365 19.5 17.0714 19.5H2.92857C1.86345 19.5 1 18.6365 1 17.5714V3.42857C1 2.36345 1.86345 1.5 2.92857 1.5H17.0714C18.1365 1.5 19 2.36345 19 3.42857V17.5714ZM5.82143 4.07143C4.57879 4.07143 3.57143 5.07879 3.57143 6.32143C3.57143 7.56407 4.57879 8.57143 5.82143 8.57143C7.06407 8.57143 8.07143 7.56407 8.07143 6.32143C8.07143 5.07879 7.06407 4.07143 5.82143 4.07143ZM11.8013 9.98444L4.21429 17.5714H17.0714V12.4286L13.4577 9.84735C12.9463 9.48204 12.2457 9.54002 11.8013 9.98444Z" fill="white"/>
</svg>
