<svg width="21" height="20" viewBox="0 0 21 20" fill="none" xmlns="http://www.w3.org/2000/svg">
<path d="M5.16667 4.66667H9.16667V8.66667H5.16667V4.66667ZM15.8333 4.66667V8.66667H11.8333V4.66667H15.8333ZM11.8333 12H13.1667V10.6667H11.8333V9.33333H13.1667V10.6667H14.5V9.33333H15.8333V10.6667H14.5V12H15.8333V14H14.5V15.3333H13.1667V14H11.1667V15.3333H9.83333V12.6667H11.8333V12ZM13.1667 12V14H14.5V12H13.1667ZM5.16667 15.3333V11.3333H9.16667V15.3333H5.16667ZM6.5 6V7.33333H7.83333V6H6.5ZM13.1667 6V7.33333H14.5V6H13.1667ZM6.5 12.6667V14H7.83333V12.6667H6.5ZM5.16667 9.33333H6.5V10.6667H5.16667V9.33333ZM8.5 9.33333H11.1667V12H9.83333V10.6667H8.5V9.33333ZM9.83333 6H11.1667V8.66667H9.83333V6ZM3.83333 3.33333V6H2.5V3.33333C2.5 2.97971 2.64048 2.64057 2.89052 2.39052C3.14057 2.14048 3.47971 2 3.83333 2H6.5V3.33333H3.83333ZM17.1667 2C17.5203 2 17.8594 2.14048 18.1095 2.39052C18.3595 2.64057 18.5 2.97971 18.5 3.33333V6H17.1667V3.33333H14.5V2H17.1667ZM3.83333 14V16.6667H6.5V18H3.83333C3.47971 18 3.14057 17.8595 2.89052 17.6095C2.64048 17.3594 2.5 17.0203 2.5 16.6667V14H3.83333ZM17.1667 16.6667V14H18.5V16.6667C18.5 17.0203 18.3595 17.3594 18.1095 17.6095C17.8594 17.8595 17.5203 18 17.1667 18H14.5V16.6667H17.1667Z" fill="white"/>
</svg>
