<svg width="20" height="20" viewBox="0 0 20 20" fill="none" xmlns="http://www.w3.org/2000/svg">
<path d="M4.66667 4.66667H8.66667V8.66667H4.66667V4.66667ZM15.3333 4.66667V8.66667H11.3333V4.66667H15.3333ZM11.3333 12H12.6667V10.6667H11.3333V9.33333H12.6667V10.6667H14V9.33333H15.3333V10.6667H14V12H15.3333V14H14V15.3333H12.6667V14H10.6667V15.3333H9.33333V12.6667H11.3333V12ZM12.6667 12V14H14V12H12.6667ZM4.66667 15.3333V11.3333H8.66667V15.3333H4.66667ZM6 6V7.33333H7.33333V6H6ZM12.6667 6V7.33333H14V6H12.6667ZM6 12.6667V14H7.33333V12.6667H6ZM4.66667 9.33333H6V10.6667H4.66667V9.33333ZM8 9.33333H10.6667V12H9.33333V10.6667H8V9.33333ZM9.33333 6H10.6667V8.66667H9.33333V6ZM3.33333 3.33333V6H2V3.33333C2 2.97971 2.14048 2.64057 2.39052 2.39052C2.64057 2.14048 2.97971 2 3.33333 2H6V3.33333H3.33333ZM16.6667 2C17.0203 2 17.3594 2.14048 17.6095 2.39052C17.8595 2.64057 18 2.97971 18 3.33333V6H16.6667V3.33333H14V2H16.6667ZM3.33333 14V16.6667H6V18H3.33333C2.97971 18 2.64057 17.8595 2.39052 17.6095C2.14048 17.3594 2 17.0203 2 16.6667V14H3.33333ZM16.6667 16.6667V14H18V16.6667C18 17.0203 17.8595 17.3594 17.6095 17.6095C17.3594 17.8595 17.0203 18 16.6667 18H14V16.6667H16.6667Z" fill="#959595"/>
</svg>
