<svg width="20" height="20" viewBox="0 0 20 20" fill="none" xmlns="http://www.w3.org/2000/svg">
<path d="M2.88862 6C3.64581 4.72229 4.75093 3.67345 6.08179 2.96946C7.41266 2.26547 8.91743 1.93375 10.4297 2.01097C11.942 2.08818 13.403 2.57133 14.651 3.40699C15.8991 4.24266 16.8856 5.39828 17.5016 6.74611M1 3.51537L1.7487 6.6749C1.87621 7.21303 2.42736 7.54856 2.97972 7.42433L6.22278 6.69492M17.1114 13.9999C16.3542 15.2776 15.2491 16.3264 13.9182 17.0304C12.5873 17.7344 11.0826 18.0661 9.57026 17.9889C8.05796 17.9117 6.59702 17.4286 5.34898 16.5929C4.10094 15.7572 3.1144 14.6016 2.49845 13.2538M19 16.4845L18.2513 13.325C18.1238 12.7869 17.5726 12.4513 17.0203 12.5756L13.7772 13.305" stroke="#008963" stroke-width="2" stroke-linecap="round"/>
</svg>
