<svg width="20" height="20" viewBox="0 0 20 20" fill="none" xmlns="http://www.w3.org/2000/svg">
<path fill-rule="evenodd" clip-rule="evenodd" d="M3.19486 1.37658C2.69275 0.874474 1.87868 0.874474 1.37658 1.37658C0.874474 1.87868 0.874474 2.69275 1.37658 3.19486L8.18174 10L1.37658 16.8052C0.874474 17.3073 0.874474 18.1214 1.37658 18.6234C1.87868 19.1255 2.69275 19.1255 3.19486 18.6234L10 11.8183L16.8052 18.6234C17.3073 19.1255 18.1214 19.1255 18.6234 18.6234C19.1255 18.1214 19.1255 17.3073 18.6234 16.8052L11.8183 10L18.6234 3.19486C19.1255 2.69275 19.1255 1.87868 18.6234 1.37658C18.1214 0.874474 17.3073 0.874474 16.8052 1.37658L10 8.18174L3.19486 1.37658Z" fill="#959595"/>
</svg>
