<svg width="20" height="20" viewBox="0 0 20 20" fill="none" xmlns="http://www.w3.org/2000/svg">
<g opacity="0.4">
<path d="M17.2401 0.47352C17.8715 -0.15784 18.8951 -0.15784 19.5265 0.47352C20.1578 1.10488 20.1578 2.12852 19.5265 2.75987L2.75987 19.5265C2.12851 20.1578 1.10488 20.1578 0.47352 19.5265C-0.15784 18.8951 -0.15784 17.8715 0.47352 17.2401L17.2401 0.47352Z" fill="#CE0A0A"/>
<path d="M0.473522 2.75988C-0.157838 2.12852 -0.157838 1.10488 0.473522 0.473522C1.10488 -0.157838 2.12852 -0.157837 2.75988 0.473522L19.5265 17.2401C20.1578 17.8715 20.1578 18.8951 19.5265 19.5265C18.8951 20.1578 17.8715 20.1578 17.2401 19.5265L0.473522 2.75988Z" fill="#CE0A0A"/>
</g>
</svg>
