<svg width="21" height="21" viewBox="0 0 21 21" fill="none" xmlns="http://www.w3.org/2000/svg">
<g opacity="0.9">
<path d="M15.334 15.5H17.1269C17.5723 15.5 17.7954 16.0386 17.4804 16.3536L14.6875 19.1464C14.4923 19.3417 14.1757 19.3417 13.9804 19.1464L11.1875 16.3536C10.8726 16.0386 11.0956 15.5 11.5411 15.5H13.334V6.5C13.334 5.94772 13.7817 5.5 14.334 5.5C14.8863 5.5 15.334 5.94772 15.334 6.5V15.5Z" fill="white"/>
<path d="M5.33398 5.5H3.54109C3.09564 5.5 2.87256 4.96143 3.18754 4.64645L5.98043 1.85355C6.17569 1.65829 6.49228 1.65829 6.68754 1.85355L9.48043 4.64645C9.79541 4.96143 9.57233 5.5 9.12688 5.5H7.33398V14.5C7.33398 15.0523 6.88627 15.5 6.33398 15.5C5.7817 15.5 5.33398 15.0523 5.33398 14.5V5.5Z" fill="white"/>
</g>
</svg>
