<svg width="26" height="20" viewBox="0 0 26 20" fill="none" xmlns="http://www.w3.org/2000/svg">
<path d="M2.24188 17.5214C2.48193 18.9549 3.66393 20 5.04527 20H21.0742C22.4864 20 23.6851 18.9089 23.8906 17.4365L24.4818 13.2H1.51825L2.24188 17.5214Z" fill="#63CAAD"/>
<path d="M0 11.2C0 10.7582 0.339871 10.4 0.759124 10.4H25.2409C25.6601 10.4 26 10.7582 26 11.2C26 11.6418 25.6601 12 25.2409 12H0.759125C0.339872 12 0 11.6418 0 11.2Z" fill="#63CAAD"/>
<path fill-rule="evenodd" clip-rule="evenodd" d="M5.04527 2C3.66393 2 2.48193 3.04507 2.24188 4.47864L1.51825 8.8H24.4818L23.8906 4.56352C23.6851 3.09109 22.4864 2 21.0742 2H5.04527ZM17.2701 5.4H9.10949V7H17.2701V5.4Z" fill="#63CAAD"/>
</svg>
