<svg width="28" height="29" viewBox="0 0 28 29" fill="none" xmlns="http://www.w3.org/2000/svg">
<path d="M17.8889 13.7221V10.0023C17.8889 7.76115 16.1477 5.94434 14 5.94434C11.8522 5.94434 10.1111 7.76115 10.1111 10.0023V13.3332" stroke="#9B9C9E" stroke-width="1.55556"/>
<path fill-rule="evenodd" clip-rule="evenodd" d="M9.33333 11.3889C8.04467 11.3889 7 12.4336 7 13.7223V20.7222C7 22.0109 8.04467 23.0556 9.33333 23.0556H18.6667C19.9553 23.0556 21 22.0109 21 20.7222V13.7222C21 12.4336 19.9553 11.3889 18.6667 11.3889H9.33333ZM15.5556 16.0556C15.5556 16.6313 15.2428 17.134 14.7779 17.4029V19.9444H13.2223V17.4031C12.7573 17.1341 12.4444 16.6314 12.4444 16.0556C12.4444 15.1964 13.1409 14.5 14 14.5C14.8591 14.5 15.5556 15.1964 15.5556 16.0556Z" fill="#9B9C9E"/>
</svg>
