<svg width="24" height="25" viewBox="0 0 24 25" fill="none" xmlns="http://www.w3.org/2000/svg">
<path fill-rule="evenodd" clip-rule="evenodd" d="M2.625 10.2299C2.625 17.5813 11.9583 24.5 11.9583 24.5C11.9583 24.5 21.2917 17.5813 21.2917 10.2299C21.2917 7.64939 20.3083 5.17455 18.558 3.34983C16.8077 1.52511 14.4337 0.5 11.9583 0.5C9.48298 0.5 7.10901 1.52511 5.35867 3.34983C3.60833 5.17455 2.625 7.64939 2.625 10.2299ZM12 15.1667C14.9455 15.1667 17.3334 12.7789 17.3334 9.83333C17.3334 6.88781 14.9455 4.5 12 4.5C9.0545 4.5 6.66669 6.88781 6.66669 9.83333C6.66669 12.7789 9.0545 15.1667 12 15.1667Z" fill="white"/>
</svg>
