<svg width="1330" height="226" viewBox="0 0 1330 226" fill="none" xmlns="http://www.w3.org/2000/svg">
<g clip-path="url(#clip0_2185_9180)">
<path d="M80.6712 83.3607C80.6712 83.3607 88.2744 26.8928 81.4565 24.7546C77.6299 22.4414 71.6347 45.5612 71.6347 45.5612C71.6347 45.5612 76.0969 17.2773 71.7967 15.7018C67.5215 14.1388 61.4763 39.6093 61.763 36.4458C62.0372 33.3699 64.7046 10.3501 59.7687 9.98746C54.7706 9.62485 52.1905 33.6574 52.1905 33.6574C52.1905 33.6574 51.5673 18.4526 46.9431 18.1525C42.269 17.8524 43.2288 40.0345 43.2288 40.0345C43.2288 40.0345 35.6007 16.9897 30.5028 18.04C25.2803 19.1153 29.6552 46.8366 29.6552 46.8366C29.6552 46.8366 28.3839 24.1044 20.0204 28.956C11.1085 34.1076 15.5333 73.27 24.0214 80.1847C32.7962 87.3244 80.6837 83.3732 80.6837 83.3732L80.6712 83.3607Z" fill="#24AB8E"/>
<path d="M297.162 83.3607C297.162 83.3607 304.765 26.8928 297.947 24.7546C294.121 22.4414 288.125 45.5612 288.125 45.5612C288.125 45.5612 292.588 17.2773 288.287 15.7018C284.012 14.1388 277.967 39.6093 278.254 36.4458C278.528 33.3699 281.195 10.3501 276.259 9.98746C271.261 9.62485 268.681 33.6574 268.681 33.6574C268.681 33.6574 268.058 18.4526 263.434 18.1525C258.76 17.8524 259.719 40.0345 259.719 40.0345C259.719 40.0345 252.091 16.9897 246.993 18.04C241.771 19.1153 246.146 46.8366 246.146 46.8366C246.146 46.8366 244.875 24.1044 236.511 28.956C227.599 34.1076 232.024 73.27 240.512 80.1847C249.274 87.3244 297.174 83.3732 297.174 83.3732L297.162 83.3607Z" fill="#24AB8E"/>
<path d="M513.653 83.3607C513.653 83.3607 521.256 26.8928 514.438 24.7546C510.612 22.4414 504.616 45.5612 504.616 45.5612C504.616 45.5612 509.079 17.2773 504.778 15.7018C500.503 14.1388 494.458 39.6093 494.745 36.4458C495.019 33.3699 497.686 10.3501 492.75 9.98746C487.752 9.62485 485.185 33.6574 485.185 33.6574C485.185 33.6574 484.561 18.4526 479.925 18.1525C475.251 17.8524 476.223 40.0345 476.223 40.0345C476.223 40.0345 468.595 16.9897 463.497 18.04C458.274 19.1153 462.637 46.8366 462.637 46.8366C462.637 46.8366 461.378 24.1044 453.015 28.956C444.103 34.1076 448.527 73.27 457.016 80.1847C465.778 87.3244 513.678 83.3732 513.678 83.3732L513.653 83.3607Z" fill="#24AB8E"/>
<path d="M199.767 93.3607C199.767 93.3607 207.37 36.8928 200.552 34.7546C196.726 32.4414 190.731 55.5612 190.731 55.5612C190.731 55.5612 195.193 27.2773 190.893 25.7018C186.617 24.1388 180.572 49.6093 180.859 46.4458C181.133 43.3699 183.801 20.3501 178.865 19.9875C173.879 19.6248 171.299 43.6574 171.299 43.6574C171.299 43.6574 170.676 28.4526 166.039 28.1525C161.365 27.8524 162.337 50.0345 162.337 50.0345C162.337 50.0345 154.709 26.9897 149.611 28.04C144.389 29.1153 148.751 56.8366 148.751 56.8366C148.751 56.8366 147.492 34.1044 139.129 38.956C130.217 44.1076 134.642 83.27 143.13 90.1847C151.892 97.3244 199.792 93.3732 199.792 93.3732L199.767 93.3607Z" fill="#24AB8E"/>
<path d="M416.258 93.3607C416.258 93.3607 423.861 36.8928 417.043 34.7546C413.217 32.4414 407.221 55.5612 407.221 55.5612C407.221 55.5612 411.684 27.2773 407.383 25.7018C403.108 24.1388 397.063 49.6093 397.35 46.4458C397.624 43.3699 400.291 20.3501 395.355 19.9875C390.357 19.6248 387.79 43.6574 387.79 43.6574C387.79 43.6574 387.166 28.4526 382.53 28.1525C377.856 27.8524 378.828 50.0345 378.828 50.0345C378.828 50.0345 371.2 26.9897 366.102 28.04C360.879 29.1153 365.242 56.8366 365.242 56.8366C365.242 56.8366 363.983 34.1044 355.62 38.956C346.708 44.1076 351.132 83.27 359.621 90.1847C368.383 97.3244 416.283 93.3732 416.283 93.3732L416.258 93.3607Z" fill="#24AB8E"/>
<path d="M632.749 93.3607C632.749 93.3607 640.352 36.8928 633.534 34.7546C629.707 32.4414 623.712 55.5612 623.712 55.5612C623.712 55.5612 628.174 27.2773 623.874 25.7018C619.599 24.1388 613.554 49.6093 613.84 46.4458C614.115 43.3699 616.782 20.3501 611.846 19.9875C606.848 19.6248 604.28 43.6574 604.28 43.6574C604.28 43.6574 603.657 28.4526 599.02 28.1525C594.346 27.8524 595.319 50.0345 595.319 50.0345C595.319 50.0345 587.691 26.9897 582.593 28.04C577.37 29.1153 581.733 56.8366 581.733 56.8366C581.733 56.8366 580.474 34.1044 572.11 38.956C563.198 44.1076 567.623 83.27 576.111 90.1847C584.874 97.3244 632.774 93.3732 632.774 93.3732L632.749 93.3607Z" fill="#24AB8E"/>
<path d="M653.962 60.6785C654.374 45.1861 651.419 42.6478 649.226 42.6478C647.032 42.6478 645.923 56.5147 645.025 66.6679C645.187 52.6635 645.125 33.2698 643.592 31.4568C637.335 24.0669 636.886 66.3803 636.886 66.3803C636.886 66.3803 636.375 33.3699 632.125 31.4568C628.124 29.6687 625.407 69.3688 625.407 69.3688C625.407 69.3688 624.958 37.8463 621.892 33.8825C618.763 29.8688 617.13 43.2105 616.27 57.2899C616.47 45.7488 615.809 34.6828 612.033 31.1442C605.152 24.6921 606.399 68.506 606.436 70.094C606.386 68.481 604.978 23.6293 600.728 30.3439C596.938 36.3208 595.605 61.5913 595.331 67.8933C595.542 62.1415 595.966 40.4971 591.006 37.1836C585.272 33.3699 586.543 75.3582 586.543 75.3582C586.543 75.3582 585.272 46.7241 580.81 46.7241C578.666 46.7241 577.258 56.5022 576.373 66.6554C576.535 52.651 576.472 33.2573 574.939 31.4443C568.682 24.0544 568.233 66.3678 568.233 66.3678C568.233 66.3678 567.722 33.3574 563.472 31.4443C559.471 29.6562 556.754 69.3563 556.754 69.3563C556.754 69.3563 556.305 37.8338 553.227 33.87C550.11 29.8563 548.465 43.198 547.618 57.2774C547.805 45.7363 547.156 34.6703 543.38 31.1317C536.5 24.6796 537.746 68.4935 537.783 70.0815C537.734 68.4685 536.325 23.6168 532.075 30.3314C528.286 36.3083 526.952 61.5788 526.678 67.8808C526.877 62.129 527.313 40.4846 522.353 37.1711C516.619 33.3574 517.891 75.3457 517.891 75.3457C517.891 75.3457 516.619 46.7116 512.157 46.7116C510.013 46.7116 508.605 56.4897 507.72 66.6429C507.882 52.6385 507.819 33.2448 506.286 31.4318C500.029 24.0419 499.581 66.3553 499.581 66.3553C499.581 66.3553 499.07 33.3449 494.819 31.4318C490.818 29.6437 488.101 69.3438 488.101 69.3438C488.101 69.3438 487.665 37.8213 484.586 33.8575C481.47 29.8438 479.837 43.1855 478.977 57.2649C479.164 45.7238 478.516 34.6578 474.739 31.1192C467.859 24.6671 469.106 68.481 469.155 70.069C469.106 68.456 467.697 23.6043 463.434 30.3189C459.645 36.2958 458.312 61.5663 458.037 67.8683C458.249 62.1165 458.686 40.4721 453.712 37.1586C447.979 33.3449 449.25 75.3332 449.25 75.3332C449.25 75.3332 447.979 46.6991 443.517 46.6991C441.373 46.6991 439.964 56.4772 439.079 66.6304C439.241 52.626 439.179 33.2323 437.646 31.4193C431.376 24.0294 430.928 66.3428 430.928 66.3428C430.928 66.3428 430.429 33.3324 426.179 31.4193C422.178 29.6312 419.461 69.3313 419.461 69.3313C419.461 69.3313 419.012 37.8088 415.933 33.845C412.805 29.8313 411.184 43.173 410.324 57.2524C410.511 45.7113 409.851 34.6453 406.074 31.1067C399.181 24.6546 400.44 68.4685 400.49 70.0565C400.44 68.4435 399.032 23.5918 394.769 30.3064C390.98 36.2833 389.646 61.5538 389.372 67.8558C389.584 62.104 390.008 40.4596 385.047 37.1461C379.313 33.3324 380.585 75.3206 380.585 75.3206C380.585 75.3206 379.313 46.6866 374.851 46.6866C372.707 46.6866 371.299 56.4647 370.414 66.6179C370.576 52.6135 370.514 33.2198 368.981 31.4068C362.711 24.0169 362.262 66.3303 362.262 66.3303C362.262 66.3303 361.751 33.3199 357.501 31.4068C353.5 29.6187 350.783 69.3187 350.783 69.3187C350.783 69.3187 350.334 37.7963 347.255 33.8325C344.139 29.8187 342.507 43.1605 341.647 57.2399C341.834 45.6988 341.173 34.6328 337.396 31.0942C330.516 24.6421 331.763 68.456 331.812 70.044C331.763 68.431 330.354 23.5793 326.104 30.2939C322.315 36.2708 320.981 61.5413 320.707 67.8433C320.919 62.0915 321.355 40.4471 316.382 37.1336C310.648 33.3199 311.919 75.3081 311.919 75.3081C311.919 75.3081 310.648 46.6741 306.186 46.6741C304.042 46.6741 302.634 56.4522 301.749 66.6054C301.911 52.601 301.848 33.2073 300.315 31.3942C294.058 24.0044 293.61 66.3178 293.61 66.3178C293.61 66.3178 293.099 33.3074 288.848 31.3942C284.847 29.6062 282.143 69.3062 282.143 69.3062C282.143 69.3062 281.694 37.7838 278.615 33.82C275.499 29.8062 273.854 43.148 273.006 57.2274C273.193 45.6863 272.533 34.6203 268.756 31.0817C261.876 24.6296 263.122 68.4435 263.172 70.0315C263.122 68.4185 261.714 23.5668 257.463 30.2814C253.674 36.2583 252.341 61.5288 252.066 67.8308C252.266 62.079 252.702 40.4346 247.741 37.1211C242.008 33.3074 243.279 75.2956 243.279 75.2956C243.279 75.2956 242.008 46.6616 237.546 46.6616C235.402 46.6616 233.993 56.4397 233.108 66.5929C233.27 52.5885 233.208 33.1948 231.675 31.3817C225.418 23.9919 224.957 66.3053 224.957 66.3053C224.957 66.3053 224.446 33.2949 220.195 31.3817C216.194 29.5937 213.49 69.2937 213.49 69.2937C213.49 69.2937 213.053 37.7713 209.962 33.8075C206.846 29.7937 205.213 43.1355 204.353 57.2149C204.54 45.6738 203.892 34.6078 200.116 31.0691C193.223 24.6171 194.482 68.431 194.519 70.019C194.469 68.406 193.061 23.5543 188.811 30.2689C185.021 36.2458 183.688 61.5163 183.414 67.8183C183.613 62.0665 184.049 40.4221 179.088 37.1086C173.355 33.2949 174.626 75.2831 174.626 75.2831C174.626 75.2831 173.355 46.6491 168.893 46.6491C166.749 46.6491 165.34 56.4272 164.455 66.5804C164.617 52.576 164.555 33.1823 163.022 31.3692C156.765 23.9794 156.316 66.2928 156.316 66.2928C156.316 66.2928 155.805 33.2823 151.555 31.3692C147.554 29.5812 144.837 69.2812 144.837 69.2812C144.837 69.2812 144.388 37.7588 141.309 33.795C138.181 29.7812 136.561 43.123 135.701 57.2024C135.888 45.6613 135.227 34.5953 131.45 31.0566C124.57 24.6046 125.816 68.4185 125.866 70.0065C125.816 68.3935 124.408 23.5418 120.145 30.2564C116.356 36.2333 115.022 61.5038 114.748 67.8058C114.948 62.054 115.396 40.4096 110.423 37.0961C104.69 33.2823 105.961 75.2706 105.961 75.2706C105.961 75.2706 104.69 46.6366 100.227 46.6366C98.0836 46.6366 96.6751 56.4147 95.7901 66.5679C95.9522 52.5635 95.8899 33.1698 94.3568 31.3567C88.0997 23.9669 87.6386 66.2803 87.6386 66.2803C87.6386 66.2803 87.1275 33.2698 82.8773 31.3567C78.8763 29.5687 76.1715 69.2687 76.1715 69.2687C76.1715 69.2687 75.7228 37.7463 72.6441 33.7825C69.5281 29.7687 67.8953 43.1105 67.0352 57.1899C67.2222 45.6488 66.5741 34.5828 62.7849 31.0441C55.9047 24.5921 57.1512 68.406 57.201 69.994C57.1512 68.381 55.7427 23.5293 51.4924 30.2439C47.7033 36.2208 46.3696 61.4913 46.0954 67.7933C46.2948 62.0415 46.7435 40.3971 41.7703 37.0835C36.0368 33.2698 37.3081 75.2581 37.3081 75.2581C37.3081 75.2581 36.0368 46.6241 31.5746 46.6241C29.4308 46.6241 28.0223 56.4022 27.1373 66.5554C27.2994 52.5509 27.237 33.1573 25.7039 31.3442C19.4469 23.9544 18.9857 66.2678 18.9857 66.2678C18.9857 66.2678 18.4747 33.2573 14.2244 31.3442C10.2234 29.5562 7.51868 69.2562 7.51868 69.2562C7.51868 69.2562 7.06996 37.7338 3.9913 33.77C0.875244 29.7562 -0.77002 43.098 -1.61758 57.1774C-1.43063 45.6363 -2.07875 34.5703 -5.86787 31.0316C-12.7481 24.5796 -11.5017 68.3935 -11.4518 69.9815C-11.5017 68.3685 -12.9102 23.5168 -17.1605 30.2314C-20.9496 36.2083 -22.2832 61.4788 -22.5574 67.7808C-22.3456 62.0289 -21.9093 40.3846 -26.8825 37.071C-32.6161 33.2573 -31.3447 75.2456 -31.3447 75.2456C-31.3447 75.2456 -32.6161 46.6116 -37.0782 46.6116C-39.2221 46.6116 -40.6305 56.3897 -41.5155 66.5429C-41.3535 52.5384 -41.4158 33.1448 -42.9489 31.3317C-49.2059 23.9419 -49.6671 66.2553 -49.6671 66.2553C-49.6671 66.2553 -50.1657 33.2448 -54.416 31.3317C-58.417 29.5437 -61.1342 69.2437 -61.1342 69.2437C-61.1342 69.2437 -61.5829 37.7213 -64.6615 33.7575C-67.7776 29.7437 -69.4104 43.0855 -70.2704 57.1649C-70.0835 45.6238 -70.7441 34.5577 -74.5207 31.0191C-81.401 24.5671 -80.1545 68.381 -80.1047 69.969C-80.1545 68.3559 -81.563 23.5043 -85.8133 30.2189C-89.6024 36.1958 -90.9361 61.4663 -91.2103 67.7683C-90.9984 62.0164 -90.5746 40.3721 -95.5354 37.0585C-101.269 33.2448 -99.9976 75.2331 -99.9976 75.2331C-99.9976 75.2331 -101.269 46.5991 -105.731 46.5991C-107.875 46.5991 -109.283 56.3772 -110.168 66.5304C-110.006 52.5259 -110.069 33.1323 -111.602 31.3192C-117.859 23.9294 -118.32 66.2428 -118.32 66.2428C-118.32 66.2428 -118.831 33.2323 -123.081 31.3192C-127.082 29.5312 -129.799 69.2312 -129.799 69.2312C-129.799 69.2312 -130.248 37.7087 -133.327 33.745C-136.443 29.7312 -138.088 43.0729 -138.936 57.1524C-138.749 45.6112 -139.409 34.5452 -143.186 31.0066C-150.066 24.5546 -148.82 68.3684 -148.77 69.9565C-148.82 68.3434 -150.228 23.4917 -154.479 30.2064C-158.268 36.1833 -159.601 61.4538 -159.876 67.7558C-159.676 62.0039 -159.24 40.3596 -164.201 37.046C-169.934 33.2323 -168.663 75.2206 -168.663 75.2206C-168.663 75.2206 -169.934 46.5866 -174.396 46.5866C-176.54 46.5866 -177.949 56.3647 -178.834 66.5179C-178.672 52.5134 -178.734 33.1198 -180.267 31.3067C-186.524 23.9169 -186.973 66.2303 -186.973 66.2303C-186.973 66.2303 -187.471 33.2198 -191.734 31.3067C-195.735 29.5187 -198.44 69.2187 -198.44 69.2187C-198.44 69.2187 -198.889 37.6962 -201.967 33.7325C-205.083 29.7187 -206.729 43.0604 -207.576 57.1399C-207.389 45.5987 -208.05 34.5327 -211.826 30.9941C-218.707 24.5421 -217.46 68.3559 -217.41 69.9439C-217.46 68.3309 -218.869 23.4792 -223.131 30.1939C-226.908 36.1708 -228.254 61.4413 -228.528 67.7433C-228.317 61.9914 -227.893 40.3471 -232.854 37.0335C-238.587 33.2198 -237.316 75.2081 -237.316 75.2081C-237.316 75.2081 -238.587 46.5741 -243.049 46.5741C-247.511 46.5741 -246.988 89 -246.988 89H652.865C653.152 79.5595 653.551 70.119 653.962 60.6785ZM-208.486 83.5482C-208.486 82.1728 -208.436 80.5473 -208.374 78.8218C-208.486 84.486 -208.486 87.1994 -208.486 83.5482ZM-139.833 83.5482C-139.833 82.1728 -139.783 80.5473 -139.721 78.8218C-139.846 84.486 -139.833 87.1994 -139.833 83.5482ZM-71.1803 83.5482C-71.1803 82.1728 -71.1305 80.5473 -71.0681 78.8218C-71.1803 84.486 -71.1803 87.1994 -71.1803 83.5482ZM-2.52747 83.5482C-2.52747 82.1728 -2.47762 80.5473 -2.4153 78.8218C-2.53995 84.486 -2.52747 87.1994 -2.52747 83.5482ZM66.1254 83.5482C66.1254 82.1728 66.1752 80.5473 66.2375 78.8218C66.1129 84.486 66.1254 87.1994 66.1254 83.5482ZM134.778 83.5482C134.778 82.1728 134.828 80.5473 134.89 78.8218C134.766 84.486 134.778 87.1994 134.778 83.5482ZM203.431 83.5482C203.431 82.1728 203.481 80.5473 203.543 78.8218C203.419 84.486 203.431 87.1994 203.431 83.5482ZM272.084 83.5482C272.084 82.1728 272.134 80.5473 272.196 78.8218C272.071 84.486 272.084 87.1994 272.084 83.5482ZM340.737 83.5482C340.737 82.1728 340.787 80.5473 340.849 78.8218C340.724 84.486 340.737 87.1994 340.737 83.5482ZM409.39 83.5482C409.39 82.1728 409.439 80.5473 409.502 78.8218C409.377 84.486 409.39 87.1994 409.39 83.5482ZM478.042 83.5482C478.042 82.1728 478.092 80.5473 478.155 78.8218C478.042 84.486 478.042 87.1994 478.042 83.5482ZM546.695 83.5482C546.695 82.1728 546.745 80.5473 546.807 78.8218C546.683 84.486 546.695 87.1994 546.695 83.5482ZM615.348 83.5482C615.348 82.1728 615.398 80.5473 615.46 78.8218C615.336 84.486 615.348 87.1994 615.348 83.5482Z" fill="#25C386"/>
<path d="M653.402 64.0203C649.937 63.6826 648.092 67.6839 647.643 68.8093H647.419C646.833 67.2713 643.904 60.194 639.143 59.9065C633.808 59.5939 634.182 67.1963 634.182 67.1963C634.182 67.1963 630.318 65.1956 627.776 65.1706C627.327 64.2203 626.566 63.3075 625.233 62.7574C621.419 61.1694 612.656 69.422 612.656 69.422C612.656 69.422 614.937 56.4178 606.935 54.2046C598.921 51.9789 592.066 63.7202 592.066 63.7202C592.066 63.7202 591.305 57.3807 587.105 57.3807C582.904 57.3807 577.57 67.8465 577.57 67.8465C577.57 67.8465 571.475 59.9565 564.993 61.682C558.512 63.4076 561.566 71.3351 561.566 71.3351C561.566 71.3351 554.324 66.8962 548.229 71.3351H533.359C533.359 71.3351 536.026 68.1966 533.733 66.8962C530.106 64.833 525.731 71.3351 525.731 71.3351C525.731 71.3351 526.117 64.6705 521.917 64.0453C518.302 63.4951 516.383 67.6589 515.934 68.8218H515.71C515.124 67.2838 512.182 60.2065 507.434 59.919C502.099 59.6064 502.473 67.2088 502.473 67.2088C502.473 67.2088 497.038 64.3829 494.832 65.4082C494.409 64.3829 493.623 63.3701 492.177 62.7699C488.363 61.1819 479.589 69.4345 479.589 69.4345C479.589 69.4345 481.882 56.4304 473.867 54.2172C465.865 51.9914 458.998 63.7327 458.998 63.7327C458.998 63.7327 458.237 57.3932 454.037 57.3932C449.837 57.3932 444.502 67.859 444.502 67.859C444.502 67.859 438.407 59.969 431.913 61.6945C425.432 63.4201 428.485 71.3476 428.485 71.3476C428.485 71.3476 421.244 66.9087 415.136 71.3476H400.266C400.266 71.3476 402.934 68.2091 400.653 66.9087C397.038 64.8455 392.651 71.3476 392.651 71.3476C392.651 71.3476 393.025 64.683 388.837 64.0578C387.341 63.8327 386.144 64.4204 385.21 65.2581C383.988 65.4082 382.605 65.8833 381.495 66.3335C380.76 64.908 379.7 63.22 378.354 61.9321C377.631 60.7317 376.46 59.8314 374.553 59.944C374.515 59.944 374.49 59.9565 374.453 59.9565C374.416 59.9565 374.378 59.944 374.341 59.944C372.434 59.8314 371.262 60.7317 370.539 61.9321C369.193 63.22 368.134 64.908 367.398 66.3335C366.301 65.8833 364.905 65.4082 363.684 65.2581C362.749 64.4204 361.553 63.8327 360.057 64.0578C355.856 64.6955 356.243 71.3476 356.243 71.3476C356.243 71.3476 351.855 64.8455 348.228 66.9087C345.935 68.2091 348.602 71.3476 348.602 71.3476H333.732C327.625 66.9087 320.383 71.3476 320.383 71.3476C320.383 71.3476 323.437 66.5461 316.956 64.8205C310.474 63.095 304.379 67.859 304.379 67.859C304.379 67.859 301.862 60.5191 297.661 60.5191C293.461 60.5191 289.883 68.4216 289.883 68.4216C289.883 68.4216 285.396 58.6936 277.394 60.9068C273.156 62.0821 271.15 64.3954 270.19 66.321C270.315 62.3322 269.666 55.7426 264.182 54.2172C256.18 51.9914 249.312 63.7327 249.312 63.7327C249.312 63.7327 248.552 57.3932 244.352 57.3932C240.151 57.3932 234.817 67.859 234.817 67.859C234.817 67.859 228.709 59.969 222.24 61.6945C215.759 63.4201 218.812 71.3476 218.812 71.3476C218.812 71.3476 211.571 66.9087 205.463 71.3476H190.594C190.594 71.3476 193.261 68.2091 190.967 66.9087C187.353 64.8455 182.965 71.3476 182.965 71.3476C182.965 71.3476 183.352 64.683 179.151 64.0578C175.537 63.5076 173.617 67.6714 173.169 68.8343H172.944C172.358 67.2963 169.429 60.2191 164.668 59.9315C159.333 59.6189 159.707 67.2213 159.707 67.2213C159.707 67.2213 154.273 64.3954 152.067 65.4207C151.643 64.3954 150.858 63.3826 149.412 62.7824C145.598 61.1944 136.823 69.447 136.823 69.447C136.823 69.447 139.116 56.4429 131.102 54.2297C123.1 52.004 116.232 63.7452 116.232 63.7452C116.232 63.7452 115.472 57.4057 111.271 57.4057C107.071 57.4057 101.736 67.8715 101.736 67.8715C101.736 67.8715 95.6288 59.9815 89.1474 61.707C82.666 63.4326 85.7197 71.3601 85.7197 71.3601C85.7197 71.3601 72.1338 61.657 57.5008 71.3601C57.5008 71.3601 60.1681 68.2216 57.8871 66.9212C54.2601 64.858 49.8851 71.3601 49.8851 71.3601C49.8851 71.3601 50.2715 64.6955 46.0711 64.0703C42.4565 63.5201 40.537 67.6839 40.0758 68.8468H39.8514C39.2656 67.3088 36.3241 60.2316 31.5752 59.944C26.2405 59.6314 26.6145 67.2338 26.6145 67.2338C26.6145 67.2338 22.7506 65.2331 20.2079 65.2081C19.7716 64.2578 18.9988 63.345 17.6652 62.7949C13.8511 61.2069 5.07632 69.4595 5.07632 69.4595C5.07632 69.4595 7.36972 56.4554 -0.64476 54.2422C-8.64677 52.0165 -15.5145 63.7577 -15.5145 63.7577C-15.5145 63.7577 -16.2749 57.4182 -20.4753 57.4182C-24.6757 57.4182 -30.0104 67.884 -30.0104 67.884C-30.0104 67.884 -36.1179 59.994 -42.5993 61.7195C-49.0806 63.4451 -46.0269 71.3726 -46.0269 71.3726C-46.0269 71.3726 -53.2686 66.9337 -59.3761 71.3726H-74.2459C-74.2459 71.3726 -71.5785 68.2341 -73.8595 66.9337C-77.4866 64.8705 -81.8615 71.3726 -81.8615 71.3726C-81.8615 71.3726 -81.4751 64.708 -85.6756 64.0828C-89.2902 63.5326 -91.2097 67.6964 -91.6584 68.8593H-91.8827C-92.4686 67.3213 -95.4101 60.2441 -100.159 59.9565C-105.494 59.6439 -105.12 67.2463 -105.12 67.2463C-105.12 67.2463 -110.554 64.4204 -112.76 65.4457C-113.184 64.4204 -113.969 63.4076 -115.415 62.8074C-119.229 61.2194 -127.992 69.472 -127.992 69.472C-127.992 69.472 -125.711 56.4679 -133.713 54.2547C-141.727 52.029 -148.582 63.7702 -148.582 63.7702C-148.582 63.7702 -149.343 57.4307 -153.543 57.4307C-157.744 57.4307 -163.078 67.8965 -163.078 67.8965C-163.078 67.8965 -169.173 60.0065 -175.655 61.732C-182.136 63.4576 -179.082 71.3851 -179.082 71.3851C-179.082 71.3851 -186.324 66.9462 -192.431 71.3851H-207.301C-207.301 71.3851 -204.634 68.2466 -206.915 66.9462C-210.542 64.883 -214.929 71.3851 -214.929 71.3851C-214.929 71.3851 -214.543 64.7205 -218.743 64.0953C-222.931 63.4576 -224.838 69.1719 -224.838 69.1719C-224.838 69.1719 -227.892 60.2941 -233.227 59.9815C-238.562 59.6689 -238.188 67.2713 -238.188 67.2713C-238.188 67.2713 -245.03 63.9952 -246.937 65.5833L-246.987 79H652.866C653.016 74.0109 653.19 69.0093 653.402 64.0203Z" fill="#47D298"/>
</g>
<g clip-path="url(#clip1_2185_9180)">
<path d="M758.18 83.3607C758.18 83.3607 765.784 26.8928 758.966 24.7546C755.139 22.4414 749.144 45.5612 749.144 45.5612C749.144 45.5612 753.606 17.2773 749.306 15.7018C745.031 14.1388 738.986 39.6093 739.272 36.4458C739.547 33.3699 742.214 10.3501 737.278 9.98746C732.28 9.62485 729.7 33.6574 729.7 33.6574C729.7 33.6574 729.077 18.4526 724.452 18.1525C719.778 17.8524 720.738 40.0345 720.738 40.0345C720.738 40.0345 713.11 16.9897 708.012 18.04C702.79 19.1153 707.165 46.8366 707.165 46.8366C707.165 46.8366 705.893 24.1044 697.53 28.956C688.618 34.1076 693.043 73.27 701.531 80.1847C710.305 87.3244 758.193 83.3732 758.193 83.3732L758.18 83.3607Z" fill="#24AB8E"/>
<path d="M974.671 83.3607C974.671 83.3607 982.274 26.8928 975.456 24.7546C971.63 22.4414 965.635 45.5612 965.635 45.5612C965.635 45.5612 970.097 17.2773 965.797 15.7018C961.521 14.1388 955.476 39.6093 955.763 36.4458C956.037 33.3699 958.705 10.3501 953.769 9.98746C948.771 9.62485 946.191 33.6574 946.191 33.6574C946.191 33.6574 945.567 18.4526 940.943 18.1525C936.269 17.8524 937.229 40.0345 937.229 40.0345C937.229 40.0345 929.601 16.9897 924.503 18.04C919.28 19.1153 923.655 46.8366 923.655 46.8366C923.655 46.8366 922.384 24.1044 914.02 28.956C905.108 34.1076 909.533 73.27 918.021 80.1847C926.796 87.3244 974.684 83.3732 974.684 83.3732L974.671 83.3607Z" fill="#24AB8E"/>
<path d="M1191.16 83.3607C1191.16 83.3607 1198.77 26.8928 1191.95 24.7546C1188.12 22.4414 1182.13 45.5612 1182.13 45.5612C1182.13 45.5612 1186.59 17.2773 1182.29 15.7018C1178.01 14.1388 1171.97 39.6093 1172.25 36.4458C1172.53 33.3699 1175.2 10.3501 1170.26 9.98746C1165.26 9.62485 1162.68 33.6574 1162.68 33.6574C1162.68 33.6574 1162.06 18.4526 1157.43 18.1525C1152.76 17.8524 1153.72 40.0345 1153.72 40.0345C1153.72 40.0345 1146.09 16.9897 1140.99 18.04C1135.77 19.1153 1140.15 46.8366 1140.15 46.8366C1140.15 46.8366 1138.87 24.1044 1130.51 28.956C1121.6 34.1076 1126.02 73.27 1134.51 80.1847C1143.27 87.3244 1191.17 83.3732 1191.17 83.3732L1191.16 83.3607Z" fill="#24AB8E"/>
<path d="M877.276 93.3607C877.276 93.3607 884.88 36.8928 878.062 34.7546C874.235 32.4414 868.24 55.5612 868.24 55.5612C868.24 55.5612 872.702 27.2773 868.402 25.7018C864.127 24.1388 858.082 49.6093 858.368 46.4458C858.642 43.3699 861.31 20.3501 856.374 19.9875C851.388 19.6248 848.808 43.6574 848.808 43.6574C848.808 43.6574 848.185 28.4526 843.548 28.1525C838.874 27.8524 839.846 50.0345 839.846 50.0345C839.846 50.0345 832.218 26.9897 827.12 28.04C821.898 29.1153 826.26 56.8366 826.26 56.8366C826.26 56.8366 825.002 34.1044 816.638 38.956C807.726 44.1076 812.151 83.27 820.639 90.1847C829.401 97.3244 877.301 93.3732 877.301 93.3732L877.276 93.3607Z" fill="#24AB8E"/>
<path d="M1093.77 93.3607C1093.77 93.3607 1101.37 36.8928 1094.55 34.7546C1090.73 32.4414 1084.73 55.5612 1084.73 55.5612C1084.73 55.5612 1089.19 27.2773 1084.89 25.7018C1080.62 24.1388 1074.57 49.6093 1074.86 46.4458C1075.13 43.3699 1077.8 20.3501 1072.86 19.9875C1067.88 19.6248 1065.3 43.6574 1065.3 43.6574C1065.3 43.6574 1064.68 28.4526 1060.04 28.1525C1055.36 27.8524 1056.34 50.0345 1056.34 50.0345C1056.34 50.0345 1048.71 26.9897 1043.61 28.04C1038.39 29.1153 1042.75 56.8366 1042.75 56.8366C1042.75 56.8366 1041.49 34.1044 1033.13 38.956C1024.22 44.1076 1028.64 83.27 1037.13 90.1847C1045.89 97.3244 1093.79 93.3732 1093.79 93.3732L1093.77 93.3607Z" fill="#24AB8E"/>
<path d="M1310.26 93.3607C1310.26 93.3607 1317.86 36.8928 1311.04 34.7546C1307.22 32.4414 1301.22 55.5612 1301.22 55.5612C1301.22 55.5612 1305.68 27.2773 1301.38 25.7018C1297.11 24.1388 1291.06 49.6093 1291.35 46.4458C1291.62 43.3699 1294.29 20.3501 1289.36 19.9875C1284.36 19.6248 1281.79 43.6574 1281.79 43.6574C1281.79 43.6574 1281.17 28.4526 1276.53 28.1525C1271.86 27.8524 1272.83 50.0345 1272.83 50.0345C1272.83 50.0345 1265.2 26.9897 1260.1 28.04C1254.88 29.1153 1259.24 56.8366 1259.24 56.8366C1259.24 56.8366 1257.98 34.1044 1249.62 38.956C1240.71 44.1076 1245.13 83.27 1253.62 90.1847C1262.38 97.3244 1310.28 93.3732 1310.28 93.3732L1310.26 93.3607Z" fill="#24AB8E"/>
<path d="M1547.96 60.6785C1548.37 45.1861 1545.42 42.6478 1543.23 42.6478C1541.03 42.6478 1539.92 56.5147 1539.03 66.6679C1539.19 52.6635 1539.13 33.2698 1537.59 31.4568C1531.34 24.0669 1530.89 66.3803 1530.89 66.3803C1530.89 66.3803 1530.38 33.3699 1526.13 31.4568C1522.12 29.6687 1519.41 69.3688 1519.41 69.3688C1519.41 69.3688 1518.96 37.8463 1515.89 33.8825C1512.76 29.8688 1511.13 43.2105 1510.27 57.2899C1510.47 45.7488 1509.81 34.6828 1506.03 31.1442C1499.15 24.6921 1500.4 68.506 1500.44 70.094C1500.39 68.481 1498.98 23.6293 1494.73 30.3439C1490.94 36.3208 1489.61 61.5913 1489.33 67.8933C1489.54 62.1415 1489.97 40.4971 1485.01 37.1836C1479.27 33.3699 1480.54 75.3582 1480.54 75.3582C1480.54 75.3582 1479.27 46.7241 1474.81 46.7241C1472.67 46.7241 1471.26 56.5022 1470.37 66.6554C1470.54 52.651 1470.47 33.2573 1468.94 31.4443C1462.68 24.0544 1462.23 66.3678 1462.23 66.3678C1462.23 66.3678 1461.72 33.3574 1457.47 31.4443C1453.47 29.6562 1450.75 69.3563 1450.75 69.3563C1450.75 69.3563 1450.31 37.8338 1447.23 33.87C1444.11 29.8563 1442.47 43.198 1441.62 57.2774C1441.81 45.7363 1441.16 34.6703 1437.38 31.1317C1430.5 24.6796 1431.75 68.4935 1431.78 70.0815C1431.73 68.4685 1430.33 23.6168 1426.08 30.3314C1422.29 36.3083 1420.95 61.5788 1420.68 67.8808C1420.88 62.129 1421.31 40.4846 1416.35 37.1711C1410.62 33.3574 1411.89 75.3457 1411.89 75.3457C1411.89 75.3457 1410.62 46.7116 1406.16 46.7116C1404.01 46.7116 1402.61 56.4897 1401.72 66.6429C1401.88 52.6385 1401.82 33.2448 1400.29 31.4318C1394.03 24.0419 1393.58 66.3553 1393.58 66.3553C1393.58 66.3553 1393.07 33.3449 1388.82 31.4318C1384.82 29.6437 1382.1 69.3438 1382.1 69.3438C1382.1 69.3438 1381.67 37.8213 1378.59 33.8575C1375.47 29.8438 1373.84 43.1855 1372.98 57.2649C1373.16 45.7238 1372.52 34.6578 1368.74 31.1192C1361.86 24.6671 1363.11 68.481 1363.16 70.069C1363.11 68.456 1361.7 23.6043 1357.43 30.3189C1353.65 36.2958 1352.31 61.5663 1352.04 67.8683C1352.25 62.1165 1352.69 40.4721 1347.71 37.1586C1341.98 33.3449 1343.25 75.3332 1343.25 75.3332C1343.25 75.3332 1341.98 46.6991 1337.52 46.6991C1335.37 46.6991 1333.96 56.4772 1333.08 66.6304C1333.24 52.626 1333.18 33.2323 1331.65 31.4193C1325.38 24.0294 1324.93 66.3428 1324.93 66.3428C1324.93 66.3428 1324.43 33.3324 1320.18 31.4193C1316.18 29.6312 1313.46 69.3313 1313.46 69.3313C1313.46 69.3313 1313.01 37.8088 1309.93 33.845C1306.81 29.8313 1305.18 43.173 1304.32 57.2524C1304.51 45.7113 1303.85 34.6453 1300.07 31.1067C1293.18 24.6546 1294.44 68.4685 1294.49 70.0565C1294.44 68.4435 1293.03 23.5918 1288.77 30.3064C1284.98 36.2833 1283.65 61.5538 1283.37 67.8558C1283.58 62.104 1284.01 40.4596 1279.05 37.1461C1273.31 33.3324 1274.59 75.3206 1274.59 75.3206C1274.59 75.3206 1273.31 46.6866 1268.85 46.6866C1266.71 46.6866 1265.3 56.4647 1264.41 66.6179C1264.58 52.6135 1264.51 33.2198 1262.98 31.4068C1256.71 24.0169 1256.26 66.3303 1256.26 66.3303C1256.26 66.3303 1255.75 33.3199 1251.5 31.4068C1247.5 29.6187 1244.78 69.3187 1244.78 69.3187C1244.78 69.3187 1244.33 37.7963 1241.26 33.8325C1238.14 29.8187 1236.51 43.1605 1235.65 57.2399C1235.83 45.6988 1235.17 34.6328 1231.4 31.0942C1224.52 24.6421 1225.76 68.456 1225.81 70.044C1225.76 68.431 1224.35 23.5793 1220.1 30.2939C1216.32 36.2708 1214.98 61.5413 1214.71 67.8433C1214.92 62.0915 1215.36 40.4471 1210.38 37.1336C1204.65 33.3199 1205.92 75.3081 1205.92 75.3081C1205.92 75.3081 1204.65 46.6741 1200.19 46.6741C1198.04 46.6741 1196.63 56.4522 1195.75 66.6054C1195.91 52.601 1195.85 33.2073 1194.32 31.3942C1188.06 24.0044 1187.61 66.3178 1187.61 66.3178C1187.61 66.3178 1187.1 33.3074 1182.85 31.3942C1178.85 29.6062 1176.14 69.3062 1176.14 69.3062C1176.14 69.3062 1175.69 37.7838 1172.62 33.82C1169.5 29.8062 1167.85 43.148 1167.01 57.2274C1167.19 45.6863 1166.53 34.6203 1162.76 31.0817C1155.88 24.6296 1157.12 68.4435 1157.17 70.0315C1157.12 68.4185 1155.71 23.5668 1151.46 30.2814C1147.67 36.2583 1146.34 61.5288 1146.07 67.8308C1146.27 62.079 1146.7 40.4346 1141.74 37.1211C1136.01 33.3074 1137.28 75.2956 1137.28 75.2956C1137.28 75.2956 1136.01 46.6616 1131.55 46.6616C1129.4 46.6616 1127.99 56.4397 1127.11 66.5929C1127.27 52.5885 1127.21 33.1948 1125.68 31.3817C1119.42 23.9919 1118.96 66.3053 1118.96 66.3053C1118.96 66.3053 1118.45 33.2949 1114.2 31.3817C1110.19 29.5937 1107.49 69.2937 1107.49 69.2937C1107.49 69.2937 1107.05 37.7713 1103.96 33.8075C1100.85 29.7937 1099.21 43.1355 1098.35 57.2149C1098.54 45.6738 1097.89 34.6078 1094.12 31.0691C1087.22 24.6171 1088.48 68.431 1088.52 70.019C1088.47 68.406 1087.06 23.5543 1082.81 30.2689C1079.02 36.2458 1077.69 61.5163 1077.41 67.8183C1077.61 62.0665 1078.05 40.4221 1073.09 37.1086C1067.36 33.2949 1068.63 75.2831 1068.63 75.2831C1068.63 75.2831 1067.36 46.6491 1062.89 46.6491C1060.75 46.6491 1059.34 56.4272 1058.46 66.5804C1058.62 52.576 1058.56 33.1823 1057.02 31.3692C1050.77 23.9794 1050.32 66.2928 1050.32 66.2928C1050.32 66.2928 1049.81 33.2823 1045.56 31.3692C1041.55 29.5812 1038.84 69.2812 1038.84 69.2812C1038.84 69.2812 1038.39 37.7588 1035.31 33.795C1032.18 29.7812 1030.56 43.123 1029.7 57.2024C1029.89 45.6613 1029.23 34.5953 1025.45 31.0566C1018.57 24.6046 1019.82 68.4185 1019.87 70.0065C1019.82 68.3935 1018.41 23.5418 1014.15 30.2564C1010.36 36.2333 1009.02 61.5038 1008.75 67.8058C1008.95 62.054 1009.4 40.4096 1004.42 37.0961C998.69 33.2823 999.961 75.2706 999.961 75.2706C999.961 75.2706 998.69 46.6366 994.228 46.6366C992.084 46.6366 990.676 56.4147 989.791 66.5679C989.953 52.5635 989.89 33.1698 988.357 31.3567C982.1 23.9669 981.639 66.2803 981.639 66.2803C981.639 66.2803 981.128 33.2698 976.878 31.3567C972.877 29.5687 970.172 69.2687 970.172 69.2687C970.172 69.2687 969.723 37.7463 966.645 33.7825C963.529 29.7687 961.896 43.1105 961.036 57.1899C961.223 45.6488 960.575 34.5828 956.785 31.0441C949.905 24.5921 951.152 68.406 951.201 69.994C951.152 68.381 949.743 23.5293 945.493 30.2439C941.704 36.2208 940.37 61.4913 940.096 67.7933C940.295 62.0415 940.744 40.3971 935.771 37.0835C930.037 33.2698 931.309 75.2581 931.309 75.2581C931.309 75.2581 930.037 46.6241 925.575 46.6241C923.431 46.6241 922.023 56.4022 921.138 66.5554C921.3 52.5509 921.238 33.1573 919.704 31.3442C913.447 23.9544 912.986 66.2678 912.986 66.2678C912.986 66.2678 912.475 33.2573 908.225 31.3442C904.224 29.5562 901.519 69.2562 901.519 69.2562C901.519 69.2562 901.07 37.7338 897.992 33.77C894.876 29.7562 893.23 43.098 892.383 57.1774C892.57 45.6363 891.922 34.5703 888.133 31.0316C881.252 24.5796 882.499 68.3935 882.549 69.9815C882.499 68.3685 881.09 23.5168 876.84 30.2314C873.051 36.2083 871.717 61.4788 871.443 67.7808C871.655 62.0289 872.091 40.3846 867.118 37.071C861.384 33.2573 862.656 75.2456 862.656 75.2456C862.656 75.2456 861.384 46.6116 856.922 46.6116C854.778 46.6116 853.37 56.3897 852.485 66.5429C852.647 52.5384 852.585 33.1448 851.052 31.3317C844.795 23.9419 844.333 66.2553 844.333 66.2553C844.333 66.2553 843.835 33.2448 839.585 31.3317C835.584 29.5437 832.866 69.2437 832.866 69.2437C832.866 69.2437 832.418 37.7213 829.339 33.7575C826.223 29.7437 824.59 43.0855 823.73 57.1649C823.917 45.6238 823.256 34.5577 819.48 31.0191C812.6 24.5671 813.846 68.381 813.896 69.969C813.846 68.3559 812.438 23.5043 808.187 30.2189C804.398 36.1958 803.064 61.4663 802.79 67.7683C803.002 62.0164 803.426 40.3721 798.465 37.0585C792.732 33.2448 794.003 75.2331 794.003 75.2331C794.003 75.2331 792.732 46.5991 788.269 46.5991C786.126 46.5991 784.717 56.3772 783.832 66.5304C783.994 52.5259 783.932 33.1323 782.399 31.3192C776.142 23.9294 775.681 66.2428 775.681 66.2428C775.681 66.2428 775.17 33.2323 770.919 31.3192C766.918 29.5312 764.201 69.2312 764.201 69.2312C764.201 69.2312 763.752 37.7087 760.674 33.745C757.558 29.7312 755.912 43.0729 755.065 57.1524C755.252 45.6112 754.591 34.5452 750.814 31.0066C743.934 24.5546 745.181 68.3684 745.23 69.9565C745.181 68.3434 743.772 23.4917 739.522 30.2064C735.733 36.1833 734.399 61.4538 734.125 67.7558C734.324 62.0039 734.761 40.3596 729.8 37.046C724.066 33.2323 725.338 75.2206 725.338 75.2206C725.338 75.2206 724.066 46.5866 719.604 46.5866C717.46 46.5866 716.052 56.3647 715.167 66.5179C715.329 52.5134 715.267 33.1198 713.733 31.3067C707.476 23.9169 707.028 66.2303 707.028 66.2303C707.028 66.2303 706.529 33.2198 702.266 31.3067C698.265 29.5187 695.561 69.2187 695.561 69.2187C695.561 69.2187 695.112 37.6962 692.033 33.7325C688.917 29.7187 687.272 43.0604 686.424 57.1399C686.611 45.5987 685.951 34.5327 682.174 30.9941C675.294 24.5421 676.54 68.3559 676.59 69.9439C676.54 68.3309 675.132 23.4792 670.869 30.1939C667.092 36.1708 665.746 61.4413 665.472 67.7433C665.684 61.9914 666.108 40.3471 661.147 37.0335C655.413 33.2198 656.685 75.2081 656.685 75.2081C656.685 75.2081 655.413 46.5741 650.951 46.5741C646.489 46.5741 647.013 89 647.013 89H1546.87C1547.15 79.5595 1547.55 70.119 1547.96 60.6785ZM685.514 83.5482C685.514 82.1728 685.564 80.5473 685.627 78.8218C685.514 84.486 685.514 87.1994 685.514 83.5482ZM754.167 83.5482C754.167 82.1728 754.217 80.5473 754.28 78.8218C754.155 84.486 754.167 87.1994 754.167 83.5482ZM822.82 83.5482C822.82 82.1728 822.87 80.5473 822.932 78.8218C822.82 84.486 822.82 87.1994 822.82 83.5482ZM891.473 83.5482C891.473 82.1728 891.523 80.5473 891.585 78.8218C891.461 84.486 891.473 87.1994 891.473 83.5482ZM960.126 83.5482C960.126 82.1728 960.176 80.5473 960.238 78.8218C960.113 84.486 960.126 87.1994 960.126 83.5482ZM1028.78 83.5482C1028.78 82.1728 1028.83 80.5473 1028.89 78.8218C1028.77 84.486 1028.78 87.1994 1028.78 83.5482ZM1097.43 83.5482C1097.43 82.1728 1097.48 80.5473 1097.54 78.8218C1097.42 84.486 1097.43 87.1994 1097.43 83.5482ZM1166.08 83.5482C1166.08 82.1728 1166.13 80.5473 1166.2 78.8218C1166.07 84.486 1166.08 87.1994 1166.08 83.5482ZM1234.74 83.5482C1234.74 82.1728 1234.79 80.5473 1234.85 78.8218C1234.72 84.486 1234.74 87.1994 1234.74 83.5482ZM1303.39 83.5482C1303.39 82.1728 1303.44 80.5473 1303.5 78.8218C1303.38 84.486 1303.39 87.1994 1303.39 83.5482ZM1372.04 83.5482C1372.04 82.1728 1372.09 80.5473 1372.16 78.8218C1372.04 84.486 1372.04 87.1994 1372.04 83.5482ZM1440.7 83.5482C1440.7 82.1728 1440.75 80.5473 1440.81 78.8218C1440.68 84.486 1440.7 87.1994 1440.7 83.5482ZM1509.35 83.5482C1509.35 82.1728 1509.4 80.5473 1509.46 78.8218C1509.34 84.486 1509.35 87.1994 1509.35 83.5482Z" fill="#25C386"/>
<path d="M1547.4 64.0203C1543.94 63.6826 1542.09 67.6839 1541.64 68.8093H1541.42C1540.83 67.2713 1537.9 60.194 1533.14 59.9065C1527.81 59.5939 1528.18 67.1963 1528.18 67.1963C1528.18 67.1963 1524.32 65.1956 1521.78 65.1706C1521.33 64.2203 1520.57 63.3075 1519.23 62.7574C1515.42 61.1694 1506.66 69.422 1506.66 69.422C1506.66 69.422 1508.94 56.4178 1500.94 54.2046C1492.92 51.9789 1486.07 63.7202 1486.07 63.7202C1486.07 63.7202 1485.31 57.3807 1481.1 57.3807C1476.9 57.3807 1471.57 67.8465 1471.57 67.8465C1471.57 67.8465 1465.47 59.9565 1458.99 61.682C1452.51 63.4076 1455.57 71.3351 1455.57 71.3351C1455.57 71.3351 1448.32 66.8962 1442.23 71.3351H1427.36C1427.36 71.3351 1430.03 68.1966 1427.73 66.8962C1424.11 64.833 1419.73 71.3351 1419.73 71.3351C1419.73 71.3351 1420.12 64.6705 1415.92 64.0453C1412.3 63.4951 1410.38 67.6589 1409.93 68.8218H1409.71C1409.12 67.2838 1406.18 60.2065 1401.43 59.919C1396.1 59.6064 1396.47 67.2088 1396.47 67.2088C1396.47 67.2088 1391.04 64.3829 1388.83 65.4082C1388.41 64.3829 1387.62 63.3701 1386.18 62.7699C1382.36 61.1819 1373.59 69.4345 1373.59 69.4345C1373.59 69.4345 1375.88 56.4304 1367.87 54.2172C1359.87 51.9914 1353 63.7327 1353 63.7327C1353 63.7327 1352.24 57.3932 1348.04 57.3932C1343.84 57.3932 1338.5 67.859 1338.5 67.859C1338.5 67.859 1332.41 59.969 1325.91 61.6945C1319.43 63.4201 1322.49 71.3476 1322.49 71.3476C1322.49 71.3476 1315.24 66.9087 1309.14 71.3476H1294.27C1294.27 71.3476 1296.93 68.2091 1294.65 66.9087C1291.04 64.8455 1286.65 71.3476 1286.65 71.3476C1286.65 71.3476 1287.02 64.683 1282.84 64.0578C1281.34 63.8327 1280.14 64.4204 1279.21 65.2581C1277.99 65.4082 1276.6 65.8833 1275.5 66.3335C1274.76 64.908 1273.7 63.22 1272.35 61.9321C1271.63 60.7317 1270.46 59.8314 1268.55 59.944C1268.52 59.944 1268.49 59.9565 1268.45 59.9565C1268.42 59.9565 1268.38 59.944 1268.34 59.944C1266.43 59.8314 1265.26 60.7317 1264.54 61.9321C1263.19 63.22 1262.13 64.908 1261.4 66.3335C1260.3 65.8833 1258.91 65.4082 1257.68 65.2581C1256.75 64.4204 1255.55 63.8327 1254.06 64.0578C1249.86 64.6955 1250.24 71.3476 1250.24 71.3476C1250.24 71.3476 1245.86 64.8455 1242.23 66.9087C1239.93 68.2091 1242.6 71.3476 1242.6 71.3476H1227.73C1221.62 66.9087 1214.38 71.3476 1214.38 71.3476C1214.38 71.3476 1217.44 66.5461 1210.96 64.8205C1204.47 63.095 1198.38 67.859 1198.38 67.859C1198.38 67.859 1195.86 60.5191 1191.66 60.5191C1187.46 60.5191 1183.88 68.4216 1183.88 68.4216C1183.88 68.4216 1179.4 58.6936 1171.39 60.9068C1167.16 62.0821 1165.15 64.3954 1164.19 66.321C1164.31 62.3322 1163.67 55.7426 1158.18 54.2172C1150.18 51.9914 1143.31 63.7327 1143.31 63.7327C1143.31 63.7327 1142.55 57.3932 1138.35 57.3932C1134.15 57.3932 1128.82 67.859 1128.82 67.859C1128.82 67.859 1122.71 59.969 1116.24 61.6945C1109.76 63.4201 1112.81 71.3476 1112.81 71.3476C1112.81 71.3476 1105.57 66.9087 1099.46 71.3476H1084.59C1084.59 71.3476 1087.26 68.2091 1084.97 66.9087C1081.35 64.8455 1076.97 71.3476 1076.97 71.3476C1076.97 71.3476 1077.35 64.683 1073.15 64.0578C1069.54 63.5076 1067.62 67.6714 1067.17 68.8343H1066.94C1066.36 67.2963 1063.43 60.2191 1058.67 59.9315C1053.33 59.6189 1053.71 67.2213 1053.71 67.2213C1053.71 67.2213 1048.27 64.3954 1046.07 65.4207C1045.64 64.3954 1044.86 63.3826 1043.41 62.7824C1039.6 61.1944 1030.82 69.447 1030.82 69.447C1030.82 69.447 1033.12 56.4429 1025.1 54.2297C1017.1 52.004 1010.23 63.7452 1010.23 63.7452C1010.23 63.7452 1009.47 57.4057 1005.27 57.4057C1001.07 57.4057 995.736 67.8715 995.736 67.8715C995.736 67.8715 989.629 59.9815 983.147 61.707C976.666 63.4326 979.72 71.3601 979.72 71.3601C979.72 71.3601 966.134 61.657 951.501 71.3601C951.501 71.3601 954.168 68.2216 951.887 66.9212C948.26 64.858 943.885 71.3601 943.885 71.3601C943.885 71.3601 944.272 64.6955 940.071 64.0703C936.456 63.5201 934.537 67.6839 934.076 68.8468H933.851C933.266 67.3088 930.324 60.2316 925.575 59.944C920.241 59.6314 920.614 67.2338 920.614 67.2338C920.614 67.2338 916.751 65.2331 914.208 65.2081C913.772 64.2578 912.999 63.345 911.665 62.7949C907.851 61.2069 899.076 69.4595 899.076 69.4595C899.076 69.4595 901.37 56.4554 893.355 54.2422C885.353 52.0165 878.485 63.7577 878.485 63.7577C878.485 63.7577 877.725 57.4182 873.525 57.4182C869.324 57.4182 863.99 67.884 863.99 67.884C863.99 67.884 857.882 59.994 851.401 61.7195C844.919 63.4451 847.973 71.3726 847.973 71.3726C847.973 71.3726 840.731 66.9337 834.624 71.3726H819.754C819.754 71.3726 822.421 68.2341 820.141 66.9337C816.513 64.8705 812.139 71.3726 812.139 71.3726C812.139 71.3726 812.525 64.708 808.324 64.0828C804.71 63.5326 802.79 67.6964 802.342 68.8593H802.117C801.531 67.3213 798.59 60.2441 793.841 59.9565C788.506 59.6439 788.88 67.2463 788.88 67.2463C788.88 67.2463 783.446 64.4204 781.24 65.4457C780.816 64.4204 780.031 63.4076 778.585 62.8074C774.771 61.2194 766.008 69.472 766.008 69.472C766.008 69.472 768.289 56.4679 760.287 54.2547C752.273 52.029 745.418 63.7702 745.418 63.7702C745.418 63.7702 744.657 57.4307 740.457 57.4307C736.256 57.4307 730.922 67.8965 730.922 67.8965C730.922 67.8965 724.827 60.0065 718.345 61.732C711.864 63.4576 714.918 71.3851 714.918 71.3851C714.918 71.3851 707.676 66.9462 701.569 71.3851H686.699C686.699 71.3851 689.366 68.2466 687.085 66.9462C683.458 64.883 679.071 71.3851 679.071 71.3851C679.071 71.3851 679.457 64.7205 675.257 64.0953C671.069 63.4576 669.162 69.1719 669.162 69.1719C669.162 69.1719 666.108 60.2941 660.773 59.9815C655.438 59.6689 655.812 67.2713 655.812 67.2713C655.812 67.2713 648.97 63.9952 647.063 65.5833L647.013 79H1546.87C1547.02 74.0109 1547.19 69.0093 1547.4 64.0203Z" fill="#47D298"/>
</g>
<rect y="77" width="1400" height="165" fill="#47D298"/>
<defs>
<clipPath id="clip0_2185_9180">
<rect width="901" height="79" fill="white" transform="translate(-247)"/>
</clipPath>
<clipPath id="clip1_2185_9180">
<rect width="901" height="79" fill="white" transform="translate(647)"/>
</clipPath>
</defs>
</svg>
