<svg width="350" height="350" viewBox="0 0 350 350" fill="none" xmlns="http://www.w3.org/2000/svg">
<path d="M175 2V23.3175M348 175H326.682M175 326.682V348M23.3175 175H2M159.922 2.65832L161.78 23.8947M347.342 159.922L326.105 161.78M188.22 326.105L190.078 347.342M23.8947 188.22L2.65832 190.078M144.959 4.62823L148.661 25.6219M345.372 144.959L324.378 148.661M201.339 324.378L205.041 345.372M25.622 201.339L4.62828 205.041M130.224 7.89479L135.742 28.4859M342.105 130.224L321.514 135.742M214.258 321.514L219.776 342.105M28.486 214.258L7.89483 219.776M115.831 12.4331L123.122 32.4651M337.567 115.83L317.535 123.122M226.878 317.535L234.17 337.567M32.4651 226.878L12.4332 234.169M101.887 18.2087L110.896 37.529M331.791 101.887L312.471 110.896M239.104 312.471L248.113 331.791M37.529 239.104L18.2087 248.113M88.5 25.1776L99.1587 43.6391M324.822 88.5L306.361 99.1587M250.841 306.361L261.5 324.822M43.6391 250.841L25.1776 261.5M75.7712 33.2867L87.9985 50.749M316.713 75.7712L299.251 87.9985M262.001 299.251L274.229 316.713M50.7489 262.001L33.2866 274.229M190.078 2.65832L188.22 23.8947M347.342 190.078L326.105 188.22M161.78 326.105L159.922 347.342M23.8947 161.78L2.65832 159.922M205.041 4.62828L201.339 25.622M345.372 205.041L324.378 201.339M148.661 324.378L144.959 345.372M25.6219 148.661L4.62824 144.959M63.7977 42.4743L77.5003 58.8045M307.526 63.7977L291.195 77.5004M272.5 291.196L286.202 307.526M58.8044 272.5L42.4742 286.202M52.6704 52.6705L67.7442 67.7443M297.329 52.6705L282.256 67.7443M282.256 282.256L297.329 297.329M67.7442 282.256L52.6704 297.329M42.4742 63.7977L58.8044 77.5003M286.202 42.4743L272.5 58.8045M291.195 272.5L307.526 286.202M77.5003 291.195L63.7977 307.526M33.2866 75.7712L50.7489 87.9985M274.229 33.2867L262.001 50.749M299.251 262.001L316.713 274.229M87.9984 299.251L75.7712 316.713M25.1775 88.4999L43.639 99.1587M261.5 25.1776L250.841 43.6391M306.361 250.841L324.822 261.5M99.1587 306.361L88.4999 324.822M18.2086 101.887L37.5289 110.896M248.113 18.2087L239.104 37.529M312.471 239.104L331.791 248.113M110.896 312.471L101.887 331.791M12.433 115.83L32.465 123.122M234.169 12.4332L226.878 32.4651M317.535 226.878L337.567 234.169M123.121 317.535L115.83 337.567M7.89467 130.224L28.4858 135.742M219.776 7.89485L214.258 28.486M321.514 214.258L342.105 219.776M135.742 321.514L130.224 342.105" stroke="#ACEEDB" stroke-width="3" stroke-linecap="round"/>
</svg>
