<svg width="24" height="24" viewBox="0 0 24 24" fill="none" xmlns="http://www.w3.org/2000/svg">
<path d="M10.7447 15.0961L10.844 15.1246L10.8692 15.0244L11.2106 13.6651C11.7338 13.7505 12.2662 13.7505 12.7894 13.6651L13.1308 15.0244L13.156 15.1245L13.2553 15.0962L14.1473 14.8413L14.2404 14.8147L14.2168 14.7208L13.8745 13.356C14.3693 13.1511 14.8314 12.8664 15.2446 12.512L16.1731 13.5033L16.2461 13.5812L16.3191 13.5033L16.9727 12.8058L17.0368 12.7374L16.9727 12.6691L16.0363 11.6698C16.5795 10.9523 16.9448 10.1006 17.0986 9.19318L17.1149 9.09691L17.0191 9.0783L16.11 8.90183L16.0094 8.88231L15.9923 8.98331C15.6489 11.0121 13.9876 12.5428 12 12.5428C10.012 12.5428 8.3511 11.0121 8.00769 8.98331L7.99058 8.88226L7.88998 8.90184L6.98089 9.07881L6.88508 9.09746L6.90141 9.1937C7.0554 10.101 7.42088 10.9525 7.96415 11.6698L7.02729 12.669L6.96318 12.7374L7.02727 12.8058L7.68091 13.5033L7.7539 13.5812L7.82686 13.5033L8.75538 12.512C9.16864 12.8664 9.63073 13.1511 10.1255 13.356L9.78318 14.7203L9.75963 14.8142L9.85265 14.8408L10.7447 15.0961Z" fill="#C3C4C5" stroke="#C3C4C5" stroke-width="0.2"/>
</svg>
