<svg width="58" height="58" viewBox="0 0 58 58" fill="none" xmlns="http://www.w3.org/2000/svg">
<path fill-rule="evenodd" clip-rule="evenodd" d="M18 21C18 20.4477 18.4477 20 19 20H39C39.5523 20 40 20.4477 40 21C40 21.5523 39.5523 22 39 22H19C18.4477 22 18 21.5523 18 21ZM18 29C18 28.4477 18.4477 28 19 28H39C39.5523 28 40 28.4477 40 29C40 29.5523 39.5523 30 39 30H19C18.4477 30 18 29.5523 18 29ZM40 37C40 36.4477 39.5523 36 39 36H19C18.4477 36 18 36.4477 18 37C18 37.5523 18.4477 38 19 38H39C39.5523 38 40 37.5523 40 37Z" fill="white"/>
</svg>
