<svg width="29" height="28" viewBox="0 0 29 28" fill="none" xmlns="http://www.w3.org/2000/svg">
<path d="M4.90771 26.0953L20.5021 10.501" stroke="white" stroke-width="2.39913"/>
<path d="M26.5 26.0953L10.9056 10.501" stroke="white" stroke-width="2.39913"/>
<path fill-rule="evenodd" clip-rule="evenodd" d="M23.7154 4.84639C23.064 4.47731 22.311 4.2666 21.5088 4.2666C19.0329 4.2666 17.0259 6.27367 17.0259 8.74951C17.0259 11.2254 19.0329 13.2324 21.5088 13.2324C23.9846 13.2324 25.9917 11.2254 25.9917 8.74951C25.9917 7.94729 25.781 7.19428 25.4119 6.54282L22.357 9.59773L20.6605 7.90129L23.7154 4.84639Z" fill="white"/>
<path fill-rule="evenodd" clip-rule="evenodd" d="M5.62644 11.2068H2.45654L7.21139 15.9616L7.21139 12.7917L8.28416 13.8645L14.6481 7.50055L12.7829 5.63533L15.1362 3.28208L10.4296 3.28208L10.4055 3.25791L10.3813 3.28208L4.04152 9.62187L5.62644 11.2068Z" fill="white"/>
</svg>
