<svg width="75" height="64" viewBox="0 0 75 64" fill="none" xmlns="http://www.w3.org/2000/svg">
<g clip-path="url(#clip0_739_2834)">
<g filter="url(#filter0_f_739_2834)">
<ellipse cx="38" cy="58" rx="22" ry="2" fill="#B6C4C7"/>
</g>
<path d="M71.4479 13.8036L60.0535 42.4312V51.5071H15.9621V42.4312L4.19611 13.8036L16.6408 20.9568L21.4314 17.2693L24.0174 15.2727L37.6362 4.85596L51.3838 15.3664L57.8886 20.3455L58.7456 20.9568L71.4479 13.8036Z" fill="#FEB50D"/>
<path d="M5.65262 12.014C5.65262 13.5669 4.38933 14.824 2.82879 14.824C1.26825 14.824 0 13.5669 0 12.014C0 10.4611 1.26329 9.20398 2.82383 9.20398C4.38437 9.20398 5.64766 10.4611 5.64766 12.014H5.65262Z" fill="#FEB50D"/>
<path d="M75 12.014C75 13.5669 73.7367 14.824 72.1762 14.824C70.6156 14.824 69.3524 13.5669 69.3524 12.014C69.3524 10.4611 70.6156 9.20398 72.1762 9.20398C73.7367 9.20398 75 10.4611 75 12.014Z" fill="#FEB50D"/>
<path d="M60.2418 50.1956L60.3408 43.3727L57.1504 8.69128L37.7551 41.1494L18.3004 8.69128L15.541 42.8798L15.65 50.1956H60.2418Z" fill="#FCDB1C"/>
<path d="M27.2277 36.5499L24.6565 40.3853L24.5277 40.1881L22.0854 36.5499L24.5277 32.9117L24.6565 32.7145L27.2277 36.5499Z" fill="#FEB50D"/>
<path d="M53.9402 36.5499L51.369 40.3853L51.2402 40.1881L48.7978 36.5499L51.2402 32.9117L51.369 32.7145L53.9402 36.5499Z" fill="#FEB50D"/>
<path d="M63.5214 49.0421H13.485V52H63.5214V49.0421Z" fill="#FCE560"/>
<path d="M2.31355 11.3731C2.31355 11.8661 2.02621 12.2654 1.66951 12.2654C1.31282 12.2654 1.02548 11.8661 1.02548 11.3731C1.02548 10.8802 1.31282 10.4808 1.66951 10.4808C2.02621 10.4808 2.31355 10.8802 2.31355 11.3731Z" fill="#FCDB1C"/>
<path d="M40.5839 2.81001C40.5839 4.36291 39.3206 5.62002 37.7601 5.62002C36.1995 5.62002 34.9362 4.36291 34.9362 2.81001C34.9362 1.25711 36.1995 0 37.7601 0C39.3206 0 40.5839 1.25711 40.5839 2.81001Z" fill="#FEB50D"/>
<path d="M37.2449 1.66134C37.2449 2.15433 36.9575 2.55365 36.6008 2.55365C36.2441 2.55365 35.9568 2.15433 35.9568 1.66134C35.9568 1.16836 36.2441 0.769043 36.6008 0.769043C36.9575 0.769043 37.2449 1.16836 37.2449 1.66134Z" fill="#FCDB1C"/>
<path d="M39.6872 4.21006C39.1373 4.9594 37.9483 4.88545 37.661 4.6784C37.3737 4.47134 38.1019 4.20513 38.6469 3.4558C39.1968 2.70646 39.3553 1.755 39.6426 1.96698C39.93 2.17404 40.2322 3.46073 39.6823 4.21006H39.6872Z" fill="#EFA500"/>
<path d="M4.24564 13.4092C3.69574 14.1585 2.50676 14.0845 2.21942 13.8775C1.93208 13.6704 2.66033 13.4042 3.20528 12.6549C3.75519 11.9056 3.91867 10.9541 4.20106 11.1661C4.48839 11.3731 4.79059 12.6598 4.24069 13.4092H4.24564Z" fill="#EFA500"/>
<path d="M74.1083 13.4092C73.5583 14.1585 72.3694 14.0845 72.082 13.8775C71.7947 13.6704 72.5229 13.4042 73.0679 12.6549C73.6178 11.9056 73.7763 10.9541 74.0637 11.1661C74.351 11.3731 74.6532 12.6598 74.1033 13.4092H74.1083Z" fill="#EFA500"/>
<path d="M71.6609 11.3731C71.6609 11.8661 71.3736 12.2654 71.0169 12.2654C70.6602 12.2654 70.3729 11.8661 70.3729 11.3731C70.3729 10.8802 70.6602 10.4808 71.0169 10.4808C71.3736 10.4808 71.6609 10.8802 71.6609 11.3731Z" fill="#FCDB1C"/>
<path d="M63.5214 51.014H13.485V52H63.5214V51.014Z" fill="#FCDB1C"/>
<path d="M43.0709 20.7054L38.0127 28.2431L37.7551 27.8586L32.9596 20.7054L37.7551 13.5472L38.0127 13.1627L43.0709 20.7054Z" fill="#E22E1B"/>
<path d="M37.4926 18.8813C36.7841 20.3159 35.8478 21.3019 35.4019 21.085C34.9561 20.8681 35.1691 19.5271 35.8775 18.0926C36.586 16.658 37.5223 15.672 37.9682 15.8889C38.414 16.1058 38.201 17.4468 37.4926 18.8813Z" fill="#FF867D"/>
<path d="M24.507 40.8474L27 40.5L24.507 40.1526L24 37L23.4859 40.1526L21 40.5L23.4859 40.8474L24 44L24.507 40.8474Z" fill="white"/>
<path d="M51.095 23.397L54 23L51.095 22.5955L50.4959 19L49.905 22.5955L47 23L49.905 23.397L50.4959 27L51.095 23.397Z" fill="white"/>
</g>
<defs>
<filter id="filter0_f_739_2834" x="12" y="52" width="52" height="12" filterUnits="userSpaceOnUse" color-interpolation-filters="sRGB">
<feFlood flood-opacity="0" result="BackgroundImageFix"/>
<feBlend mode="normal" in="SourceGraphic" in2="BackgroundImageFix" result="shape"/>
<feGaussianBlur stdDeviation="2" result="effect1_foregroundBlur_739_2834"/>
</filter>
<clipPath id="clip0_739_2834">
<rect width="75" height="64" fill="white"/>
</clipPath>
</defs>
</svg>
