<svg width="192" height="34" viewBox="0 0 192 34" fill="none" xmlns="http://www.w3.org/2000/svg">
<g clip-path="url(#clip0_808_11016)">
<path d="M34.9419 3.71095C34.7212 3.72643 36.4712 -0.85645 30.8218 0.144764C15.8917 2.78714 5.34443 12.5516 3.12147 15.3488C0.898501 18.1408 -5.90703 29.8044 12.0764 28.442C30.0598 27.0795 39.9975 16.9435 41.3743 15.0804C46.7662 7.78289 44.6536 2.94713 34.9419 3.71611V3.71095ZM31.2633 1.32661C31.2633 1.32661 34.7948 0.531831 33.3443 3.96383C33.3443 3.96383 24.5471 4.78441 12.2813 11.9168C12.2813 11.9168 18.6665 3.21034 31.258 1.32661H31.2633ZM26.5808 23.7972C18.0516 26.9195 9.95327 26.3363 8.49232 22.4811C7.03136 18.6311 12.7543 12.9799 21.2836 9.85241C29.8128 6.72491 37.9111 7.31325 39.3721 11.1633C40.8383 15.0133 35.1101 20.6697 26.5808 23.792V23.7972Z" fill="#DD0041"/>
<path d="M44.3279 34.0001L48.1064 12.954H53.6822L53.2775 15.199C54.2182 14.2545 55.0433 13.6094 55.7475 13.274C56.6987 12.825 57.7025 12.5979 58.7535 12.5979C60.8346 12.5979 62.3008 13.3772 63.1574 14.9358C64.014 16.4995 64.24 18.4297 63.8248 20.7263C63.3676 23.2655 62.4006 25.2008 60.9187 26.5375C59.4367 27.8742 57.755 28.5399 55.8579 28.5399C54.9382 28.5399 54.1289 28.3851 53.4299 28.0754C52.731 27.7658 52.1319 27.3116 51.6484 26.7026L50.3399 33.9898H44.3279V34.0001ZM52.7047 20.6025C52.4893 21.8049 52.5891 22.6978 52.999 23.281C53.4089 23.8641 54.0133 24.1532 54.8068 24.1532C55.5005 24.1532 56.1311 23.8745 56.6987 23.3171C57.2715 22.7597 57.6709 21.8101 57.9127 20.4683C58.1334 19.2348 58.0493 18.3317 57.6657 17.7485C57.282 17.1705 56.7355 16.8814 56.0365 16.8814C55.2745 16.8814 54.5861 17.1756 53.9765 17.7588C53.3616 18.342 52.9412 19.2864 52.7047 20.5973V20.6025Z" fill="#0058A6"/>
<path d="M20.9788 12.9436H26.7017L27.49 22.4035L32.3196 12.9436H37.6273L39.1829 22.4809L43.3818 12.9436H49.068L40.6649 28.0908H35.4044L33.9171 18.9767L29.261 28.0908H23.9795L20.9788 12.9436Z" fill="#0058A6"/>
<path d="M102.467 14.4402H89.9172V17.0103H100.144V19.8024H88.9397V22.4138H95.062V23.8124H89.9592V26.4238H100.186V29.4532H102.509V23.8175H97.3849V22.4189H103.507V19.8075H102.467V14.4453V14.4402Z" fill="#0058A6"/>
<path d="M134.75 14.4402H132.427V15.7356H125.374V14.4402H123.052V22.8008H134.75V14.4402ZM132.427 18.5173V19.9933H125.374V18.5173H132.427Z" fill="#0058A6"/>
<path d="M121.596 23.6265V26.3514H127.718V29.2518H130.046V26.3514H136.168V23.6265H121.596Z" fill="#0058A6"/>
<path d="M146.127 14.4402H143.799V16.1949H140.835V14.4402H138.512V22.7338H146.127V14.4402ZM143.799 18.7237V20.2049H140.835V18.7237H143.799Z" fill="#0058A6"/>
<path d="M141.292 28.7513H150.915V23.3582H138.964V25.8044H148.592V26.305H138.964V31.7395H151.24V29.2932H141.287V28.7513H141.292Z" fill="#0058A6"/>
<path d="M150.915 14.4661H148.592V22.739H150.915V19.7508H152.533V17.1394H150.915V14.4661Z" fill="#0058A6"/>
<path d="M157.457 23.8279H155.129V28.5501H167.999V25.9387H157.457V23.8279Z" fill="#0058A6"/>
<path d="M165.671 14.4402V17.1393H163.291V19.7508H165.671V22.7802H167.999V14.4402H165.671Z" fill="#0058A6"/>
<path d="M155.844 22.8989C155.844 22.8989 158.498 20.0759 158.687 19.8746C158.881 20.081 161.551 22.8989 161.551 22.8989L163.164 20.6384C163.164 20.6384 159.922 17.4748 159.496 17.0567H162.55V14.4453H154.798V17.0567H157.851C157.431 17.4748 154.246 20.6177 154.246 20.6177L155.839 22.904L155.844 22.8989Z" fill="#0058A6"/>
<path d="M179.729 22.8989C179.729 22.8989 182.383 20.0759 182.572 19.8746C182.767 20.081 185.436 22.8989 185.436 22.8989L187.05 20.6384C187.05 20.6384 183.807 17.4748 183.381 17.0567H186.435V14.4453H178.689V17.0567H181.742C181.321 17.4748 178.137 20.6177 178.137 20.6177L179.729 22.904V22.8989Z" fill="#0058A6"/>
<path d="M174.589 14.5537H173.186V29.0816H174.589V14.5537Z" fill="#0058A6"/>
<path d="M176.424 26.2121H181.71V29.1126H183.476V26.2121H188.768V23.7659H176.424V26.2121Z" fill="#0058A6"/>
<path d="M192.005 14.5537H190.597V29.0816H192.005V14.5537Z" fill="#0058A6"/>
<path d="M80.878 19.1416C80.878 18.1662 80.5101 17.3146 79.7744 16.5921C79.0387 15.8696 78.1768 15.5083 77.1783 15.5083C76.1115 15.5083 75.2076 15.8696 74.4771 16.5921C73.7414 17.2785 73.3735 18.1249 73.3735 19.1416C73.3735 20.1583 73.7414 20.9685 74.4771 21.6911C75.2129 22.4497 76.1115 22.8316 77.1783 22.8316C78.1716 22.8316 79.0334 22.4549 79.7744 21.6911C80.5101 20.9685 80.878 20.117 80.878 19.1416ZM78.1453 20.1428C77.8615 20.4318 77.5304 20.5815 77.1468 20.5815C76.7369 20.5815 76.39 20.437 76.1063 20.1428C75.8225 19.8641 75.6806 19.539 75.6806 19.1622C75.6806 18.7855 75.8225 18.4449 76.1063 18.1816C76.39 17.903 76.7369 17.7636 77.1468 17.7636C77.5304 17.7636 77.8615 17.903 78.1453 18.1816C78.4291 18.4603 78.571 18.7855 78.571 19.1622C78.571 19.539 78.4291 19.8641 78.1453 20.1428Z" fill="#0058A6"/>
<path d="M75.8226 23.8071H73.4998V28.5294H86.0125V25.9179H75.8278V23.8071H75.8226Z" fill="#0058A6"/>
<path d="M85.6131 17.1238V14.4504H83.2903V22.7595H85.6131V19.73H87.2264V17.1186H85.6131V17.1238Z" fill="#0058A6"/>
<path d="M81.0935 14.4349H78.2242V12.5977H75.9014V14.4349H73.011V17.1702H81.0988V14.4349H81.0935Z" fill="#0058A6"/>
<path d="M116.682 14.4556V17.1289H114.301V19.7403H116.682V28.5551H119.005V14.4556H116.682Z" fill="#0058A6"/>
<path d="M109.283 14.4402L105.278 22.3622L107.47 23.8279L109.766 19.3172L112.084 23.8279L114.301 22.3622L110.292 14.4402H109.283Z" fill="#0058A6"/>
</g>
<defs>
<clipPath id="clip0_808_11016">
<rect width="192" height="34" fill="white"/>
</clipPath>
</defs>
</svg>
