<svg width="185" height="34" viewBox="0 0 185 34" fill="none" xmlns="http://www.w3.org/2000/svg">
<g clip-path="url(#clip0_808_11108)">
<path d="M152.865 26.9959C147.45 26.9959 143.049 22.5641 143.049 17.1118V17.0979C143.049 13.7007 140.39 10.9326 137.1 10.9326C133.809 10.9326 131.164 13.5259 131.157 16.9231V26.4017H127.776V0H126.763C122.452 0 118.946 3.52303 118.946 7.87089V26.1361C118.946 30.484 122.445 34.007 126.763 34.007H160.3V23.5567C158.495 25.6608 155.829 27.0029 152.865 27.0029V26.9959Z" fill="#009944"/>
<path d="M177.183 0H131.171L131.157 9.77919C132.768 8.38117 134.836 7.53536 137.1 7.53536C140.244 7.53536 143.021 9.16406 144.694 11.6525C146.457 8.9963 149.456 7.23479 152.865 7.23479C154.58 7.23479 156.19 7.68216 157.593 8.45806V12.6242C156.405 11.352 154.726 10.5551 152.865 10.5551C149.269 10.5551 146.353 13.4979 146.353 17.1118C146.353 20.7257 149.276 23.6756 152.865 23.6756C155.947 23.6756 158.53 21.5016 159.203 18.6007H153.344V15.6299H160.411C161.112 11.0514 165.062 7.52837 169.804 7.52837C175.045 7.52837 179.307 11.8203 179.307 17.0979C179.307 22.3754 175.045 26.6674 169.804 26.6674C168.978 26.6674 168.179 26.5555 167.409 26.3528V22.7669C168.145 23.0884 168.95 23.2632 169.804 23.2632C173.185 23.2632 175.927 20.4951 175.927 17.0979C175.927 13.7007 173.178 10.9326 169.804 10.9326C166.43 10.9326 163.681 13.7007 163.681 17.0979V34H177.183C181.501 34 185 30.477 185 26.1291V7.87089C185 3.52303 181.501 0 177.183 0Z" fill="#009944"/>
<path d="M53.711 12.8271C53.711 10.5413 52.2532 9.12231 49.9067 9.12231H39.9795V11.478H49.5735C50.7884 11.478 51.0383 11.9953 51.0383 12.8271V18.0277H39.091V20.3834H55.2591V18.0277H53.7041V12.8271H53.711Z" fill="#6FBA2C"/>
<path d="M62.5136 22.7181V20.3834H67.5883V18.0277H60.6115C59.3966 18.0277 59.1467 17.5105 59.1467 16.6786V15.9307H67.5883V14.7634V12.8271C67.5883 10.5413 66.1304 9.12231 63.791 9.12231H56.4809V11.478H63.4577C64.6726 11.478 64.9225 11.9953 64.9225 12.8271V13.575H56.4809V16.6786C56.4809 18.8176 57.7652 20.1807 59.8548 20.3485V22.7111C59.8548 24.9969 61.3126 26.4159 63.6521 26.4159H72.2326V24.0602H63.9853C62.7705 24.0602 62.5206 23.543 62.5206 22.7111L62.5136 22.7181Z" fill="#6FBA2C"/>
<path d="M7.6849 22.7251V20.3345H5.01219V22.7251C5.01219 25.0109 6.47003 26.4299 8.81646 26.4299H17.3969V24.0742H9.14968C7.92787 24.0742 7.6849 23.5569 7.6849 22.7251Z" fill="#6FBA2C"/>
<path d="M74.0167 11.4709H75.7869V18.0207H74.0167V20.3763H85.6447V18.0207H83.8744V11.4709H85.6447V9.11523H74.0167V11.4709ZM78.4596 11.4709H81.2017V18.0207H78.4596V11.4709Z" fill="#6FBA2C"/>
<path d="M99.5219 17.3495C102.285 17.3495 104.527 15.0917 104.527 12.3097C104.527 9.52759 102.285 7.26978 99.5219 7.26978C96.759 7.26978 94.5167 9.52759 94.5167 12.3097C94.5167 15.0917 96.759 17.3495 99.5219 17.3495ZM99.5219 9.67438C100.966 9.67438 102.139 10.8557 102.139 12.3097C102.139 13.7636 100.966 14.9449 99.5219 14.9449C98.078 14.9449 96.9048 13.7636 96.9048 12.3097C96.9048 10.8557 98.078 9.67438 99.5219 9.67438Z" fill="#6FBA2C"/>
<path d="M10.4895 14.1621C10.4895 13.1765 10.1979 12.2608 9.712 11.4849H10.9685V9.12923H6.82408V7.06714H4.15138V9.12923H0V11.4849H1.24958C0.763631 12.2608 0.472063 13.1765 0.472063 14.1621C0.472063 16.9442 2.71436 19.202 5.47732 19.202C8.24027 19.202 10.4826 16.9442 10.4826 14.1551L10.4895 14.1621ZM2.86709 14.1621C2.86709 12.7082 4.0403 11.5268 5.48426 11.5268C6.92822 11.5268 8.10143 12.7082 8.09449 14.1551C8.09449 15.6091 6.92127 16.7904 5.48426 16.7904C4.0403 16.7904 2.86709 15.6091 2.86709 14.1551V14.1621Z" fill="#6FBA2C"/>
<path d="M14.7242 8.48608V10.5272H11.6835V12.8829H14.7242V14.6514H11.6835V17.0071H14.7242V20.3903H17.3969V8.48608H14.7242Z" fill="#6FBA2C"/>
<path d="M34.7452 8.5V12.2887H32.8847V8.5H30.212V16.3499H23.5059C22.2911 16.3499 22.0412 15.8326 22.0412 15.0008V11.4848C23.1519 11.4848 27.574 11.4848 28.2405 11.4848V9.12911H20.5417H19.3754V15.0078C19.3754 17.2936 20.8332 18.7126 23.1727 18.7126H30.212V20.3972H32.8847V14.6513H34.7452V20.3972H37.4179V8.5H34.7452Z" fill="#6FBA2C"/>
<path d="M72.2256 8.5H69.5529V20.3832H72.2256V8.5Z" fill="#6FBA2C"/>
<path d="M90.3167 13.1626L90.3237 8.47925H87.651L87.644 20.3765H90.3167V15.5183H92.6146V13.1626H90.3167Z" fill="#6FBA2C"/>
<path d="M106.929 8.5L106.922 18.0206H92.5798V20.3762H98.1891V26.4157H100.862V20.3762H106.922V21.6974H103.632V24.053H106.922V26.4017H109.595V8.5H106.929Z" fill="#6FBA2C"/>
</g>
<defs>
<clipPath id="clip0_808_11108">
<rect width="185" height="34" fill="white"/>
</clipPath>
</defs>
</svg>
