<svg width="30" height="30" viewBox="0 0 30 30" fill="none" xmlns="http://www.w3.org/2000/svg">
<g clip-path="url(#clip0_2637_4099)">
<path fill-rule="evenodd" clip-rule="evenodd" d="M17.1429 2.14286C17.1429 0.959389 16.1835 0 15 0C13.8165 0 12.8571 0.959389 12.8571 2.14286V12.8571H2.14286C0.959389 12.8571 0 13.8165 0 15C0 16.1835 0.959389 17.1429 2.14286 17.1429H12.8571V27.8571C12.8571 29.0406 13.8165 30 15 30C16.1835 30 17.1429 29.0406 17.1429 27.8571V17.1429H27.8571C29.0406 17.1429 30 16.1835 30 15C30 13.8165 29.0406 12.8571 27.8571 12.8571H17.1429V2.14286Z" fill="#D9D9D9"/>
</g>
<defs>
<clipPath id="clip0_2637_4099">
<rect width="30" height="30" fill="white"/>
</clipPath>
</defs>
</svg>
