<svg width="30" height="30" viewBox="0 0 30 30" fill="none" xmlns="http://www.w3.org/2000/svg">
<circle cx="15" cy="15" r="15" fill="#D9D9D9"/>
<path d="M20.0681 8.33146C20.51 7.88951 21.2266 7.88951 21.6685 8.33146C22.1105 8.77342 22.1105 9.48996 21.6685 9.93191L9.93191 21.6685C9.48996 22.1105 8.77342 22.1105 8.33146 21.6685C7.88951 21.2266 7.88951 20.51 8.33146 20.0681L20.0681 8.33146Z" fill="#7B7B7B"/>
<path d="M8.33147 9.93191C7.88951 9.48996 7.88951 8.77342 8.33147 8.33147C8.77342 7.88951 9.48996 7.88951 9.93191 8.33147L21.6685 20.0681C22.1105 20.51 22.1105 21.2266 21.6685 21.6685C21.2266 22.1105 20.51 22.1105 20.0681 21.6685L8.33147 9.93191Z" fill="#7B7B7B"/>
<path d="M20.0681 8.33146C20.51 7.88951 21.2266 7.88951 21.6685 8.33146C22.1105 8.77342 22.1105 9.48996 21.6685 9.93191L9.93191 21.6685C9.48996 22.1105 8.77342 22.1105 8.33146 21.6685C7.88951 21.2266 7.88951 20.51 8.33146 20.0681L20.0681 8.33146Z" stroke="#7B7B7B"/>
<path d="M8.33147 9.93191C7.88951 9.48996 7.88951 8.77342 8.33147 8.33147C8.77342 7.88951 9.48996 7.88951 9.93191 8.33147L21.6685 20.0681C22.1105 20.51 22.1105 21.2266 21.6685 21.6685C21.2266 22.1105 20.51 22.1105 20.0681 21.6685L8.33147 9.93191Z" stroke="#7B7B7B"/>
</svg>
