<svg width="31" height="26" viewBox="0 0 31 26" fill="none" xmlns="http://www.w3.org/2000/svg">
<path d="M26.7591 12.8221L24.5227 2.73684H25.6316C26.3873 2.73684 27 2.12418 27 1.36842C27 0.612663 26.3873 0 25.6316 0H5.72727C4.6227 0 3.72727 0.89543 3.72727 2V5.47368H1.36842C0.612663 5.47368 0 6.08635 0 6.84211C0 7.59786 0.612663 8.21053 1.36842 8.21053H3.72727V13.0547C2.87133 13.823 2.18613 14.7635 1.71625 15.815C1.24637 16.8665 1.00232 18.0055 1 19.1579V21.8947H3.72727C3.72727 22.9835 4.15828 24.0277 4.92547 24.7976C5.69267 25.5675 6.73321 26 7.81818 26C8.90316 26 9.9437 25.5675 10.7109 24.7976C11.4781 24.0277 11.9091 22.9835 11.9091 21.8947H20.0909C20.0909 22.9835 20.5219 24.0277 21.2891 24.7976C22.0563 25.5675 23.0968 26 24.1818 26C25.2668 26 26.3073 25.5675 27.0745 24.7976C27.8417 24.0277 28.2727 22.9835 28.2727 21.8947H31V19.1579C31.0003 17.7985 30.597 16.4699 29.8417 15.3415C29.0864 14.213 28.0132 13.3359 26.7591 12.8221ZM7.81818 23.9474C7.41363 23.9474 7.01816 23.827 6.68179 23.6014C6.34541 23.3759 6.08324 23.0553 5.92843 22.6802C5.77361 22.3052 5.73311 21.8925 5.81203 21.4943C5.89095 21.0961 6.08576 20.7304 6.37183 20.4433C6.65789 20.1562 7.02235 19.9607 7.41913 19.8815C7.81591 19.8023 8.22719 19.843 8.60094 19.9984C8.9747 20.1537 9.29416 20.4168 9.51892 20.7544C9.74367 21.0919 9.86364 21.4888 9.86364 21.8947C9.86364 22.4391 9.64813 22.9612 9.26454 23.3462C8.88094 23.7311 8.36067 23.9474 7.81818 23.9474ZM20.8136 12.3158L19.2455 9.9621L20.0595 9.41558C20.6807 8.99852 20.8492 8.15846 20.4369 7.53407C20.0206 6.90362 19.1708 6.73242 18.5428 7.15251L14.6708 9.74291C14.0482 10.1594 13.8788 11.0006 14.2915 11.6257C14.7074 12.2554 15.5559 12.427 16.1838 12.0085L16.9955 11.4674L18.5636 13.8484L17.3636 15.0526H13.5455L6.45455 5.47368V2.73684H21.7273L23.8409 12.3158M24.1818 23.9474C23.7773 23.9474 23.3818 23.827 23.0454 23.6014C22.7091 23.3759 22.4469 23.0553 22.2921 22.6802C22.1373 22.3052 22.0967 21.8925 22.1757 21.4943C22.2546 21.0961 22.4494 20.7304 22.7355 20.4433C23.0215 20.1562 23.386 19.9607 23.7828 19.8815C24.1796 19.8023 24.5908 19.843 24.9646 19.9984C25.3383 20.1537 25.6578 20.4168 25.8826 20.7544C26.1073 21.0919 26.2273 21.4888 26.2273 21.8947C26.2273 22.4391 26.0118 22.9612 25.6282 23.3462C25.2446 23.7311 24.7243 23.9474 24.1818 23.9474Z" fill="#008963"/>
</svg>
