<svg width="15" height="14" viewBox="0 0 15 14" fill="none" xmlns="http://www.w3.org/2000/svg">
<path d="M5.71946 12.2046L10.705 7.21312C11.0983 6.81929 11.0983 6.18079 10.705 5.78697C10.3116 5.39315 9.67391 5.39314 9.28055 5.78697L4.29502 10.7785C3.90167 11.1723 3.90168 11.8108 4.29502 12.2046C4.68837 12.5985 5.32611 12.5985 5.71946 12.2046Z" fill="#7B7B7B"/>
<path d="M9.28054 7.21304L4.29501 2.22152C3.90165 1.82769 3.90167 1.18919 4.29501 0.795368C4.68836 0.401552 5.32609 0.401538 5.71945 0.795368L10.705 5.78697C11.0983 6.18079 11.0983 6.81929 10.705 7.21312C10.3116 7.60693 9.67389 7.60686 9.28054 7.21304Z" fill="#7B7B7B"/>
</svg>
