<svg width="14" height="14" viewBox="0 0 14 14" fill="none" xmlns="http://www.w3.org/2000/svg">
<path d="M12.7046 5.71946L7.71312 10.705C7.31929 11.0983 6.68079 11.0983 6.28697 10.705C5.89315 10.3116 5.89314 9.67391 6.28697 9.28055L11.2785 4.29502C11.6723 3.90167 12.3108 3.90168 12.7046 4.29502C13.0985 4.68837 13.0985 5.32611 12.7046 5.71946Z" fill="#444444"/>
<path d="M7.71304 9.28054L2.72152 4.29501C2.32769 3.90165 1.68919 3.90167 1.29537 4.29501C0.901552 4.68836 0.901538 5.32609 1.29537 5.71945L6.28697 10.705C6.68079 11.0983 7.31929 11.0983 7.71312 10.705C8.10693 10.3116 8.10686 9.67389 7.71304 9.28054Z" fill="#444444"/>
</svg>
