<svg width="14" height="14" viewBox="0 0 14 14" fill="none" xmlns="http://www.w3.org/2000/svg">
<g clip-path="url(#clip0_2792_2382)">
<path d="M2.02205 4.20003C2.55208 3.30562 3.32566 2.57144 4.25727 2.07865C5.18887 1.58586 6.24221 1.35365 7.30083 1.4077C8.35944 1.46175 9.3821 1.79995 10.2557 2.38492C11.1294 2.96988 11.8199 3.77882 12.2511 4.7223M0.700012 2.46078L1.2241 4.67246C1.31336 5.04915 1.69916 5.28402 2.08581 5.19706L4.35596 4.68647M11.978 9.79995C11.4479 10.6944 10.6744 11.4285 9.74276 11.9213C8.81115 12.4141 7.75781 12.6463 6.6992 12.5923C5.64058 12.5382 4.61793 12.2 3.7443 11.6151C2.87067 11.0301 2.1801 10.2212 1.74893 9.27767M13.3 11.5392L12.7759 9.32752C12.6867 8.95083 12.3009 8.71596 11.9142 8.80292L9.64407 9.31351" stroke="#959595" stroke-width="2" stroke-linecap="round"/>
</g>
<defs>
<clipPath id="clip0_2792_2382">
<rect width="14" height="14" fill="white"/>
</clipPath>
</defs>
</svg>
