<svg width="96" height="96" viewBox="0 0 96 96" fill="none" xmlns="http://www.w3.org/2000/svg">
<g clip-path="url(#clip0_107_462)">
<g filter="url(#filter0_d_107_462)">
<g filter="url(#filter1_bi_107_462)">
<path fill-rule="evenodd" clip-rule="evenodd" d="M28.2831 72.9966C28.1799 72.9989 28.0764 73 27.9726 73C20.2557 73 14 66.704 14 58.9375C14 53.6669 16.8811 49.0735 21.1446 46.6655C21.1426 46.5377 21.1416 46.4096 21.1416 46.2812C21.1416 33.4234 31.4983 23 44.274 23C55.2941 23 64.5144 30.7555 66.8403 41.1393C75.2725 41.4956 82 48.4884 82 57.0625C82 65.8645 74.9102 73 66.1644 73H28.2831V72.9966Z" fill="url(#paint0_linear_107_462)"/>
</g>
<g style="mix-blend-mode:soft-light">
<path d="M41.9452 58.9375C41.9452 66.704 35.6895 73 27.9726 73C20.2557 73 14 66.704 14 58.9375C14 51.171 20.2557 44.875 27.9726 44.875C35.6895 44.875 41.9452 51.171 41.9452 58.9375Z" fill="url(#paint1_linear_107_462)"/>
</g>
</g>
</g>
<defs>
<filter id="filter0_d_107_462" x="10" y="23" width="76" height="58" filterUnits="userSpaceOnUse" color-interpolation-filters="sRGB">
<feFlood flood-opacity="0" result="BackgroundImageFix"/>
<feColorMatrix in="SourceAlpha" type="matrix" values="0 0 0 0 0 0 0 0 0 0 0 0 0 0 0 0 0 0 127 0" result="hardAlpha"/>
<feOffset dy="4"/>
<feGaussianBlur stdDeviation="2"/>
<feComposite in2="hardAlpha" operator="out"/>
<feColorMatrix type="matrix" values="0 0 0 0 0 0 0 0 0 0 0 0 0 0 0 0 0 0 0.15 0"/>
<feBlend mode="normal" in2="BackgroundImageFix" result="effect1_dropShadow_107_462"/>
<feBlend mode="normal" in="SourceGraphic" in2="effect1_dropShadow_107_462" result="shape"/>
</filter>
<filter id="filter1_bi_107_462" x="-1" y="8" width="98" height="80" filterUnits="userSpaceOnUse" color-interpolation-filters="sRGB">
<feFlood flood-opacity="0" result="BackgroundImageFix"/>
<feGaussianBlur in="BackgroundImageFix" stdDeviation="7.5"/>
<feComposite in2="SourceAlpha" operator="in" result="effect1_backgroundBlur_107_462"/>
<feBlend mode="normal" in="SourceGraphic" in2="effect1_backgroundBlur_107_462" result="shape"/>
<feColorMatrix in="SourceAlpha" type="matrix" values="0 0 0 0 0 0 0 0 0 0 0 0 0 0 0 0 0 0 127 0" result="hardAlpha"/>
<feOffset dx="3" dy="3"/>
<feGaussianBlur stdDeviation="2.5"/>
<feComposite in2="hardAlpha" operator="arithmetic" k2="-1" k3="1"/>
<feColorMatrix type="matrix" values="0 0 0 0 1 0 0 0 0 1 0 0 0 0 1 0 0 0 1 0"/>
<feBlend mode="normal" in2="shape" result="effect2_innerShadow_107_462"/>
</filter>
<linearGradient id="paint0_linear_107_462" x1="28.9041" y1="33" x2="62.7863" y2="65.5593" gradientUnits="userSpaceOnUse">
<stop stop-color="white"/>
<stop offset="1" stop-color="#DFE1ED"/>
</linearGradient>
<linearGradient id="paint1_linear_107_462" x1="41.6002" y1="50.7778" x2="32.1676" y2="58.4962" gradientUnits="userSpaceOnUse">
<stop stop-color="white"/>
<stop offset="1" stop-color="white" stop-opacity="0"/>
</linearGradient>
<clipPath id="clip0_107_462">
<rect width="96" height="96" fill="white"/>
</clipPath>
</defs>
</svg>
