<svg width="24" height="24" viewBox="0 0 24 24" fill="none" xmlns="http://www.w3.org/2000/svg">
<path d="M17.0982 12.0188L17.1018 12L17.0982 11.9812C16.654 9.65675 14.5381 7.9 12 7.9C9.46196 7.9 7.34554 9.65674 6.90177 11.9812L6.89819 12L6.90178 12.0188C7.34601 14.3433 9.46194 16.1 12 16.1C14.538 16.1 16.6545 14.3433 17.0982 12.0188ZM14.5331 14.1585C13.814 14.7101 12.9209 15.0109 12 15.0111H12C11.0791 15.0109 10.186 14.7101 9.46688 14.1585C8.75425 13.6119 8.25446 12.8514 8.04658 12.0001C8.2552 11.1493 8.75531 10.3897 9.46786 9.84384C10.1869 9.29299 11.0796 8.99268 12 8.99268C12.9204 8.99268 13.8131 9.29299 14.5321 9.84384C15.2447 10.3897 15.7448 11.1493 15.9534 12.0001C15.7455 12.8514 15.2457 13.6119 14.5331 14.1585Z" fill="#1CB99A" stroke="#1CB99A" stroke-width="0.2"/>
<path d="M14.0002 12C14.0002 13.1046 13.1048 14 12.0002 14C10.8957 14 10.0002 13.1046 10.0002 12C10.0002 10.8954 10.8957 9.99999 12.0002 9.99999C13.1048 9.99999 14.0002 10.8954 14.0002 12Z" fill="#1CB99A"/>
</svg>
