<svg width="24" height="24" viewBox="0 0 24 24" fill="none" xmlns="http://www.w3.org/2000/svg">
<path d="M7.23204 18.272L11.68 15.024L16.16 18.272L14.416 13.184L18.544 10.416H13.52L11.68 4.95996L9.87204 10.416H4.81604L8.94404 13.184L7.23204 18.272Z" fill="#1CB99A"/>
<path fill-rule="evenodd" clip-rule="evenodd" d="M5.28083 20.935L7.75255 13.5891L1.52905 9.416H9.14985L11.6716 1.80603L14.238 9.416H21.8308L15.6111 13.5866L18.13 20.9355L11.6821 16.2607L5.28083 20.935ZM11.68 15.024L16.16 18.272L14.416 13.184L18.544 10.416H13.52L11.68 4.96L9.87195 10.416H4.81595L8.94395 13.184L7.23195 18.272L11.68 15.024Z" fill="#1CB99A"/>
</svg>
