<svg width="24" height="24" viewBox="0 0 24 24" fill="none" xmlns="http://www.w3.org/2000/svg">
<path d="M7.232 18.272L11.68 15.024L16.16 18.272L14.416 13.184L18.544 10.416H13.52L11.68 4.96L9.872 10.416H4.816L8.944 13.184L7.232 18.272Z" fill="#1CB99A"/>
<path d="M7.232 18.272L6.28421 17.9531L5.28088 20.935L7.82173 19.0796L7.232 18.272ZM11.68 15.024L12.267 14.2144L11.6779 13.7873L11.0903 14.2164L11.68 15.024ZM16.16 18.272L15.573 19.0816L18.1301 20.9355L17.106 17.9478L16.16 18.272ZM14.416 13.184L13.8591 12.3534L13.2209 12.7814L13.47 13.5082L14.416 13.184ZM18.544 10.416L19.1009 11.2466L21.8309 9.416H18.544V10.416ZM13.52 10.416L12.5724 10.7356L12.8019 11.416H13.52V10.416ZM11.68 4.96L12.6276 4.64044L11.6717 1.80603L10.7308 4.64544L11.68 4.96ZM9.872 10.416V11.416H10.5941L10.8212 10.7306L9.872 10.416ZM4.816 10.416V9.416H1.5291L4.25907 11.2466L4.816 10.416ZM8.944 13.184L9.89179 13.5029L10.1354 12.7789L9.50093 12.3534L8.944 13.184ZM7.82173 19.0796L12.2697 15.8316L11.0903 14.2164L6.64227 17.4644L7.82173 19.0796ZM11.093 15.8336L15.573 19.0816L16.747 17.4624L12.267 14.2144L11.093 15.8336ZM17.106 17.9478L15.362 12.8598L13.47 13.5082L15.214 18.5962L17.106 17.9478ZM14.9729 14.0146L19.1009 11.2466L17.9871 9.58544L13.8591 12.3534L14.9729 14.0146ZM18.544 9.416H13.52V11.416H18.544V9.416ZM14.4676 10.0964L12.6276 4.64044L10.7324 5.27956L12.5724 10.7356L14.4676 10.0964ZM10.7308 4.64544L8.92276 10.1014L10.8212 10.7306L12.6292 5.27456L10.7308 4.64544ZM9.872 9.416H4.816V11.416H9.872V9.416ZM4.25907 11.2466L8.38707 14.0146L9.50093 12.3534L5.37293 9.58544L4.25907 11.2466ZM7.99621 12.8651L6.28421 17.9531L8.17979 18.5909L9.89179 13.5029L7.99621 12.8651Z" fill="#1CB99A"/>
</svg>
