<svg width="24" height="24" viewBox="0 0 24 24" fill="none" xmlns="http://www.w3.org/2000/svg">
<path fill-rule="evenodd" clip-rule="evenodd" d="M9.98919 1.7992C9.98919 0.805529 10.7947 0 11.7884 0C12.7821 0 13.5876 0.805528 13.5876 1.7992V2.5454C18.4294 3.36488 20.0948 7.44764 20.1844 9.60004V16.8L21.8909 18.6C22.7905 19.8 22.6106 20.4 21.8909 20.4H2.19244C1.5927 20.4 0.993144 19.8 2.19245 18.6C2.44758 18.3448 2.71026 18.0945 2.95643 17.86L2.95648 17.86L2.9565 17.86C3.40466 17.433 3.7981 17.0582 3.99164 16.8V9.60004C3.99164 7.44983 5.24326 3.3732 9.98919 2.54791V1.7992ZM11.7884 24C10.4635 24 9.38944 22.9249 9.38944 21.6H14.1873C14.1873 22.9249 13.1133 24 11.7884 24Z" fill="#1B90FC"/>
</svg>
