<svg width="24" height="24" viewBox="0 0 24 24" fill="none" xmlns="http://www.w3.org/2000/svg">
<path fill-rule="evenodd" clip-rule="evenodd" d="M2.625 9.72993C2.625 17.0813 11.9583 24 11.9583 24C11.9583 24 21.2917 17.0813 21.2917 9.72993C21.2917 7.14939 20.3083 4.67455 18.558 2.84983C16.8077 1.02511 14.4337 0 11.9583 0C9.48298 0 7.10901 1.02511 5.35867 2.84983C3.60833 4.67455 2.625 7.14939 2.625 9.72993ZM12 14.6667C14.9455 14.6667 17.3334 12.2789 17.3334 9.33333C17.3334 6.38781 14.9455 4 12 4C9.0545 4 6.66669 6.38781 6.66669 9.33333C6.66669 12.2789 9.0545 14.6667 12 14.6667Z" fill="#1B90FC"/>
</svg>
