<svg width="11" height="11" viewBox="0 0 11 11" fill="none" xmlns="http://www.w3.org/2000/svg">
<path fill-rule="evenodd" clip-rule="evenodd" d="M4.3534 0.853553C4.15814 0.658291 4.15814 0.341709 4.3534 0.146447C4.54866 -0.0488155 4.86525 -0.0488155 5.06051 0.146447L10.0605 5.14645L10.4141 5.5L10.0605 5.85355L5.06051 10.8536C4.86525 11.0488 4.54867 11.0488 4.3534 10.8536C4.15814 10.6583 4.15814 10.3417 4.3534 10.1464L8.99985 5.5L4.3534 0.853553ZM0.353402 0.853553C0.15814 0.658291 0.15814 0.341709 0.353402 0.146447C0.548665 -0.0488155 0.865247 -0.0488155 1.06051 0.146447L6.06051 5.14645L6.41406 5.5L6.06051 5.85355L1.06051 10.8536C0.865248 11.0488 0.548665 11.0488 0.353403 10.8536C0.158141 10.6583 0.158141 10.3417 0.353403 10.1464L4.99985 5.5L0.353402 0.853553Z" fill="white"/>
</svg>
